<svg xmlns="http://www.w3.org/2000/svg" xmlns:xlink="http://www.w3.org/1999/xlink" width="131" height="108" viewBox="0 0 131 108">
  <defs>
    <clipPath id="clip-path">
      <rect id="Rectangle_1697" data-name="Rectangle 1697" width="131" height="108" transform="translate(1235 657)" fill="#fff" stroke="#707070" stroke-width="1"/>
    </clipPath>
  </defs>
  <g id="bottom-right-bg" transform="translate(-1235 -657)" clip-path="url(#clip-path)">
    <g id="Group_8069" data-name="Group 8069" transform="translate(-1097.775 -293.611)">
      <g id="Group_7885" data-name="Group 7885" transform="translate(2350.654 974.413)">
        <path id="Path_6887" data-name="Path 6887" d="M2460.831,1007.5c-11.181-4.618-10.321,24.3-17.764,17.282-3.859-3.635,3.457-22.035-2.112-27.429s-15.089,2.2-9.259,13.907-4.028,23.272-7.923,20.342-6.849-15.182-10.2-22.925-10.69-13.771-18.653-7.517,5.817,13.764,13.425,21.228,12,16.627,6.481,15.573-16.132-9.726-25.677-10.585-23.836,7.716-20.845,18.671,16.975,2.236,24.945-1.2,23.98-.333,20.266,2.824-19.084,1.1-27.777,3.264-13.16,15.851-4.662,17.35,29.035-17.313,34.045-12.742-3.232,14.262-11.436,14.964-15.964,13.8-8.5,21.576,19.166-.875,22.39-10.262,13.431-14.413,16.671-10.473-7.683,26.365.153,33.749,16.138-1.9,13.212-10.573-10.425-24.253-2.425-24.11,10.292,10.585,11.482,17.327,12.695,1.755,6.978-6.148-3.98-10.848.7-7.18,10.45,15.911,15.835,15.217,3.721-15.722-7.949-18.879-8.31-7.977-2.577-9.823,19.376,3.313,26.52,10.786c9.981,10.442,33.844,3.487,29.879-9.419s-32.079-5.671-41.791-6.983-10.629-6.613-5.762-9.423,33.862-3.445,31.015-14.708-13.47-7.367-22.352,1.275-18.645,10.684-21.146,5.96,7.012-7.443,4.655-12.476-9.659-4.664-9.959,5.7-13.753-1.6-10.231-3.428C2457.155,1024.74,2469.182,1010.944,2460.831,1007.5Z" transform="translate(-2367.899 -995.578)" fill="#ef6f71"/>
        <path id="Path_6888" data-name="Path 6888" d="M2393.342,1063.689c-1.591.38-5.981,3.931-3.08,4.816s5.893-2.5,11.052-2.467C2398.513,1063.9,2397.372,1062.726,2393.342,1063.689Z" transform="translate(-2378.442 -1028.976)" fill="#d0edf8"/>
        <path id="Path_6889" data-name="Path 6889" d="M2658.017,1118.24c1.409.832,4.553,5.521,1.521,5.511s-4.892-4.13-9.83-5.621C2653.014,1116.915,2654.45,1116.13,2658.017,1118.24Z" transform="translate(-2506.777 -1055.379)" fill="#d0edf8"/>
        <path id="Path_6890" data-name="Path 6890" d="M2426.708,1154.979c-1.1,1.208-2.735,6.612.162,5.713s3.465-5.382,7.753-8.254C2431.1,1152.246,2429.5,1151.917,2426.708,1154.979Z" transform="translate(-2396.158 -1072.823)" fill="#d0edf8"/>
      </g>
      <g id="Group_7886" data-name="Group 7886" transform="translate(2456.089 971.53)">
        <path id="Path_6891" data-name="Path 6891" d="M2575.833,1013.421c-.751-6.9,6.62-26.24,19.508-23.206,7.188,1.692,6.181,13.029-5.526,15.913A36.9,36.9,0,0,0,2575.833,1013.421Z" transform="translate(-2575.781 -989.895)" fill="#44bfdd"/>
        <path id="Path_6892" data-name="Path 6892" d="M2598.523,994.206c1.375-.474,6.356.091,4.606,2.137s-5.606.939-9.454,3.427C2594.752,996.831,2595.045,995.41,2598.523,994.206Z" transform="translate(-2584.599 -991.942)" fill="#d0edf8"/>
      </g>
      <g id="Group_7887" data-name="Group 7887" transform="translate(2502.235 1011.927)">
        <path id="Path_6893" data-name="Path 6893" d="M2666.764,1076.917c6.232-6.048,30.976-13.65,37.9,1.4,3.86,8.392-8.1,16.119-19.947,6.787A46.194,46.194,0,0,0,2666.764,1076.917Z" transform="translate(-2666.764 -1069.543)" fill="#44bfdd"/>
        <path id="Path_6894" data-name="Path 6894" d="M2720.2,1077.229c1.524.989,4.8,6.337,1.432,6.187s-5.235-4.809-10.651-6.693C2714.706,1075.527,2716.337,1074.722,2720.2,1077.229Z" transform="translate(-2688.553 -1072.521)" fill="#d0edf8"/>
      </g>
      <g id="Group_7888" data-name="Group 7888" transform="translate(2332.905 982.522)">
        <path id="Path_6895" data-name="Path 6895" d="M2367.421,1025.7c-3.465-7.01-22.163-20.914-32.569-10.235-5.8,5.955,2.012,16.113,14.875,11.768A41.55,41.55,0,0,1,2367.421,1025.7Z" transform="translate(-2332.905 -1011.567)" fill="#44bfdd"/>
        <path id="Path_6896" data-name="Path 6896" d="M2345.683,1015.839c-1.592.38-5.981,3.929-3.08,4.815s5.893-2.5,11.052-2.466C2350.853,1016.049,2349.712,1014.875,2345.683,1015.839Z" transform="translate(-2337.207 -1013.504)" fill="#d0edf8"/>
      </g>
      <g id="Group_7889" data-name="Group 7889" transform="translate(2391.191 952.63)">
        <path id="Path_6897" data-name="Path 6897" d="M2463.985,974.34c1.778-5.334-.734-21.9-11.45-21.708-5.979.1-7.128,9.246,1.64,13.537A29.89,29.89,0,0,1,2463.985,974.34Z" transform="translate(-2447.824 -952.63)" fill="#44bfdd"/>
        <path id="Path_6898" data-name="Path 6898" d="M2461.186,957.078c-1-.612-5.043-1.02-4.01.9s4.274,1.7,6.892,4.333C2463.72,959.8,2463.731,958.626,2461.186,957.078Z" transform="translate(-2452.35 -954.571)" fill="#d0edf8"/>
      </g>
      <g id="Group_7890" data-name="Group 7890" transform="translate(2397.493 1061.089)">
        <path id="Path_6899" data-name="Path 6899" d="M2473.715,1166.474c-5.688,1.8-18.336,14.31-11.478,23.392,3.824,5.065,12.389.339,10.595-9.867A31.716,31.716,0,0,1,2473.715,1166.474Z" transform="translate(-2460.25 -1166.474)" fill="#44bfdd"/>
        <path id="Path_6900" data-name="Path 6900" d="M2463.286,1196.943c.1,1.245,2.276,4.966,3.28,2.88s-1.208-4.734-.588-8.623C2464.042,1193.066,2463.024,1193.794,2463.286,1196.943Z" transform="translate(-2461.726 -1178.659)" fill="#d0edf8"/>
      </g>
    </g>
  </g>
</svg>
