<svg xmlns="http://www.w3.org/2000/svg" xmlns:xlink="http://www.w3.org/1999/xlink" width="160" height="200" viewBox="0 0 160 200">
  <defs>
    <clipPath id="clip-path">
      <rect id="Rectangle_1696" data-name="Rectangle 1696" width="160" height="200" transform="translate(-30.095 644)" fill="#fff" stroke="#707070" stroke-width="1"/>
    </clipPath>
  </defs>
  <g id="left-top-bg" transform="translate(30.095 -644)" clip-path="url(#clip-path)">
    <g id="Group_7816" data-name="Group 7816" transform="translate(-193.808 558.335)">
      <path id="Path_6564" data-name="Path 6564" d="M121.542,34.048c-.193-.15-.425-.156-.527.065-.363-.6.116-1.346.643-1.213C121.466,33.215,121.913,33.813,121.542,34.048Z" transform="translate(-74.81 -32.885)" fill="#ef6f71"/>
      <path id="Path_6565" data-name="Path 6565" d="M105.367,34.72c-.1-.317.06-.507.13-.743C105.616,34.294,105.9,34.686,105.367,34.72Z" transform="translate(-14.706 -30.881)" fill="#ef6f71"/>
      <path id="Path_6566" data-name="Path 6566" d="M86.676,42.037c-.2.079-.4.153-.6.232-.082-.4-.471-.133-.516-.632l.026-.043A1.288,1.288,0,0,1,85,41.218a.777.777,0,0,0-.521-.315l-.145,0-.037-.145a.466.466,0,0,0-.111-.232.2.2,0,0,1-.011-.272.192.192,0,0,1,.269-.011.639.639,0,0,1,.181.289,1.231,1.231,0,0,1,.646.408,1.076,1.076,0,0,0,.326.264c.394-.176.485.334.845.227C86.183,41.558,86.718,41.68,86.676,42.037Z" transform="translate(64.392 -19.472)" fill="#ef6f71"/>
      <path id="Path_6567" data-name="Path 6567" d="M71.145,36.049c-.417.329-.924.842-1.222.054.377-.028.247-.289.553-.349C70.527,36.233,71.057,35.646,71.145,36.049Z" transform="translate(120.19 -27.621)" fill="#ef6f71"/>
      <path id="Path_6568" data-name="Path 6568" d="M71.188,36.864a.6.6,0,0,0-.258-.317.568.568,0,0,1,.575.057C71.355,36.668,71.4,36.821,71.188,36.864Z" transform="translate(116.975 -26.256)" fill="#ef6f71"/>
      <path id="Path_6569" data-name="Path 6569" d="M79.8,43.971c.3.164,0,.269.3.436C79.839,44.728,79.573,44.011,79.8,43.971Z" transform="translate(83.481 -12.549)" fill="#ef6f71"/>
      <path id="Path_6570" data-name="Path 6570" d="M126.3,73.81c.493.584,1.576-.145,2.194.162l.026.009a1.222,1.222,0,0,0,.839-.045,1.686,1.686,0,0,1,1.074-.034,8.523,8.523,0,0,1,3.979-.343,11.821,11.821,0,0,1,2.191-.094,6.494,6.494,0,0,1,3.492-.374l.008.048.006,0a14.587,14.587,0,0,0,2.089-.159,12.176,12.176,0,0,1,2.352-.153.158.158,0,0,1,.048.306.1.1,0,0,1-.065.011,12.372,12.372,0,0,0-2.3.15,13.828,13.828,0,0,1-2.01.162,13.763,13.763,0,0,1-3.5.445.223.223,0,0,1-.074.011A11.416,11.416,0,0,0,134.48,74c-1.052.51-1.655.009-2.684.471-.323-.408-1.066.133-1.471-.094h0a1.167,1.167,0,0,0-.845.028,1.658,1.658,0,0,1-1.154.014l0,0c-.845.034-2.01.777-2.489-.011C125.691,74.071,126,73.938,126.3,73.81Z" transform="translate(-111.736 40.354)" fill="#ef6f71"/>
      <path id="Path_6571" data-name="Path 6571" d="M45.34,40.563c.082.329.368.213.618.179a6.676,6.676,0,0,1,.9,2l-.023.006c.028.04.06.077.085.119.524.091,1.247.66,1.179,1.329-.836.388-1.173-.349-1.511-1.074l.02,0c-.04-.06-.079-.122-.125-.181C45.907,42.286,44.8,41.314,45.34,40.563Z" transform="translate(213.309 -18.8)" fill="#ef6f71"/>
      <path id="Path_6572" data-name="Path 6572" d="M128.479,75.651a6.762,6.762,0,0,1,1.675-.269c.111-.011.221-.017.329-.026l-.02-.028c2.168-.723,5.073-1.65,7.157-1.5v0a7.34,7.34,0,0,1,1.777-.06,10.514,10.514,0,0,0,1.233.017.2.2,0,0,1,.218.184.2.2,0,0,1-.127.2.28.28,0,0,1-.062.014,10.714,10.714,0,0,1-1.281-.011,6.679,6.679,0,0,0-1.706.057h-.031v0a1.742,1.742,0,0,0-1.049,1.23c-2,.371-3.58-.184-5.731.533-.181.031-.238-.213-.377-.269l.014-.025c-.1.006-.215.017-.317.025a5.847,5.847,0,0,0-1.678.281l.034.051a4.521,4.521,0,0,1-2.228.3c-.626.028-1.553.57-1.573-.5A10.347,10.347,0,0,1,128.479,75.651Z" transform="translate(-104.867 42.073)" fill="#ef6f71"/>
      <path id="Path_6573" data-name="Path 6573" d="M127.87,77.472a21.083,21.083,0,0,0,2.676-.232c.709-.094,1.44-.187,2.174-.221a15.533,15.533,0,0,1,4.351-.587,3.008,3.008,0,0,1,1.25-.043.2.2,0,0,1,.147.232.208.208,0,0,1-.122.139.189.189,0,0,1-.113.009,2.663,2.663,0,0,0-1.069.037l.017.023c-1.7.519-2.948.947-4.424.609-.72.034-1.448.128-2.154.221a22.149,22.149,0,0,1-2.727.232c-1.08.215-2.324.8-2.82-.295C125.9,77,126.994,77.413,127.87,77.472Z" transform="translate(-103.399 46.825)" fill="#ef6f71"/>
      <path id="Path_6574" data-name="Path 6574" d="M137.74,82.547c-.215-.332-.213.213-.479.184C137.031,82.252,138.06,82.045,137.74,82.547Z" transform="translate(-137.227 57.679)" fill="#ef6f71"/>
      <path id="Path_6575" data-name="Path 6575" d="M121.141,93.3c-1.936-2.341,2.228-4.484,3.055-2.823.334.663-.366,1.1-.077,1.958C123.326,93.084,121.969,93.707,121.141,93.3Z" transform="translate(-76.683 71.67)" fill="#ef6f71"/>
      <path id="Path_6576" data-name="Path 6576" d="M118.959,105.4c.782-2.078,2.625-3.679,3.8-5.592.95-.448,1.134-1.735,2.205-1.805-.181.337-.2.8-.4,1.12-.261.408-.828.706-1.094,1.111-.113.164-.184.473-.3.666-.065.108-.06.213-.15.329-.264.354-.128.465-.249.785-.051.133-.357.184-.436.309-.119.179,0,.479-.06.57-.082.136-.354.2-.431.3-.278.377-.383.864-.975,1.063a9.758,9.758,0,0,1-3.954,4.824A6.059,6.059,0,0,1,118.959,105.4Z" transform="translate(-66.809 86.564)" fill="#ef6f71"/>
      <path id="Path_6577" data-name="Path 6577" d="M136.85,111.543q-.923-2.411-1.839-4.813C138.355,104.913,140.625,110.63,136.85,111.543Z" transform="translate(-131.953 101.921)" fill="#ef6f71"/>
      <path id="Path_6578" data-name="Path 6578" d="M121.34,106.671a21.578,21.578,0,0,1,1.754-1.913l.009.014a1.8,1.8,0,0,1,.108-.167l-.04-.008c.385-.558.329-1.309,1.3-1.6.048-.06.1-.116.147-.181a3.6,3.6,0,0,1,.337-.394.193.193,0,0,1,.264.009.189.189,0,0,1-.006.261,2.56,2.56,0,0,0-.3.351c-.068.088-.139.17-.21.249l.042.014a2.912,2.912,0,0,1-1.244,1.556c-.034.057-.062.1-.091.145a2.16,2.16,0,0,1-1.088,1.706c.21.278-.025.306-.1.453a2.985,2.985,0,0,1-1.052,1.23c-.309.221-.578.5-.961.366C119.731,107.794,120.878,107.181,121.34,106.671Z" transform="translate(-76.139 94.571)" fill="#ef6f71"/>
      <path id="Path_6579" data-name="Path 6579" d="M103.29,97.67c.394.649-.5.249,0,0Z" transform="translate(-6.182 85.951)" fill="#ef6f71"/>
      <path id="Path_6580" data-name="Path 6580" d="M103.957,98.987c-.431-.235-.519.113-.762-.539.241-.014.652-.417.771-.156-.184.122.085.145.139.363C103.946,98.718,104.074,98.908,103.957,98.987Z" transform="translate(-7.073 86.933)" fill="#ef6f71"/>
      <path id="Path_6581" data-name="Path 6581" d="M26.879,70.1a3.233,3.233,0,0,1,.462,1.2,1.128,1.128,0,0,1-2-.9C25.637,70.217,26.264,70.353,26.879,70.1Z" transform="translate(290.369 35.376)" fill="#ef6f71"/>
      <path id="Path_6582" data-name="Path 6582" d="M72.056,89.576c.077-.55.558-.533,1.114-.7C73.836,89.548,72.212,90.191,72.056,89.576Z" transform="translate(111.961 69.821)" fill="#ef6f71"/>
      <path id="Path_6583" data-name="Path 6583" d="M116.339,105.585a2.759,2.759,0,0,1,.295,1.131c-.513.162-.408.334-.842.323a1.013,1.013,0,0,1-.34-1.25C115.832,105.531,115.985,105.789,116.339,105.585Z" transform="translate(-54.121 100.47)" fill="#ef6f71"/>
      <path id="Path_6584" data-name="Path 6584" d="M106.324,113.615c-.23.2.06.624-.252.788-.1-.176-.3.014-.36.136a.893.893,0,0,1,.159-1.023C105.947,113.712,106.231,113.454,106.324,113.615Z" transform="translate(-16.165 115.018)" fill="#ef6f71"/>
      <path id="Path_6585" data-name="Path 6585" d="M67.511,109.382c.947-1.1,1.154-2.542,2.71-3.378l0,0,.02-.048.057-.159c.128-.964.213-1.939,1.23-2.5.034-1.718,1.394-2.837,1.939-4.325.5-.147.587-.473,1.154-.581a4.622,4.622,0,0,1-.252,2.582,1.032,1.032,0,0,1,.862.085,9.593,9.593,0,0,1-.743,2.766c-.062.113-.411.068-.482.184-.213.38-.275,1.193-.822.726a6.63,6.63,0,0,0,.264-1.482,2.364,2.364,0,0,0,.607-2.021c-.006.346-.462.312-.635.516-.043.054.074.329.02.405-.292.414-.921.825-1.168,1.275-.451.836-.462,2.041-1.522,2.514h-.008c-.017.06-.042.125-.062.184l-.026.06,0,0c-.394,1.658-1.406,3.038-2.063,4.577-1.355.726-.915,2.248-2.151,3.03a1.828,1.828,0,0,1-.85-.779,11.061,11.061,0,0,1,1.99-3.1C67.551,109.737,67.659,109.615,67.511,109.382Z" transform="translate(128.392 87.274)" fill="#ef6f71"/>
      <path id="Path_6586" data-name="Path 6586" d="M105.947,114.562c.1.176.295-.017.36-.136.065.295.076.564-.128.737C106.081,115.118,105.678,114.7,105.947,114.562Z" transform="translate(-16.86 116.687)" fill="#ef6f71"/>
      <path id="Path_6587" data-name="Path 6587" d="M106.131,114.661c.3.125.111.383-.057.573C106.018,115.01,105.723,114.678,106.131,114.661Z" transform="translate(-16.979 117.118)" fill="#ef6f71"/>
      <path id="Path_6588" data-name="Path 6588" d="M68.7,105.535a2.087,2.087,0,0,0,1.173-.173c1.188-1,.592-2.795,1.709-3.826.635.21.136,1.032.357,1.655-.737,1.335-.811,2.965-2.024,4.087a3.733,3.733,0,0,1-.13.743c-.4.088-.436.334-.465.59l-.723.275a2.2,2.2,0,0,1-1.964,1.718c-.255-.581-.009-.935.02-1.389C68.156,108.352,67.487,106.524,68.7,105.535Z" transform="translate(129.043 93.043)" fill="#ef6f71"/>
      <path id="Path_6589" data-name="Path 6589" d="M42.841,93.272c-.082.207-.431.221-.649.108C42.286,93.159,42.714,92.969,42.841,93.272Z" transform="translate(227.091 77.595)" fill="#ef6f71"/>
      <path id="Path_6590" data-name="Path 6590" d="M91.895,114.008c2.225.513,3.461,3.894.72,4.419-.414-.541-1.006-.575-1.394-1.128-.221-.312-.187-.91-.5-1.321a2.292,2.292,0,0,0,.306-1.358A3.337,3.337,0,0,0,91.895,114.008Z" transform="translate(38.216 115.92)" fill="#ef6f71"/>
      <path id="Path_6591" data-name="Path 6591" d="M36.966,97.07c.564,1.862,2.435,1.754,2.721,3.515-.281.1-.561.218-.845.32-1.029-1.2-2.469-2.642-3.217-3.733C35.826,96.8,36.583,97.1,36.966,97.07Z" transform="translate(248.859 84.695)" fill="#ef6f71"/>
      <path id="Path_6592" data-name="Path 6592" d="M120.071,135.874c.048.119.1.238.139.36a.841.841,0,0,1-.556.349.694.694,0,0,0-.306-.434A.624.624,0,0,1,120.071,135.874Z" transform="translate(-68.96 155.964)" fill="#ef6f71"/>
      <path id="Path_6593" data-name="Path 6593" d="M53.148,117.073c.128.459.575.2.9.213a.85.85,0,0,0,1.046.564,8.449,8.449,0,0,0,2.316,1.735c-.028-.153.111-.125.241-.091.391.689,1.188.482,1.709.864.1.8.847,1.173,1.1,1.786a4.2,4.2,0,0,1-.02,2.489,5.43,5.43,0,0,1-2.333.754c-.255-.32-.663-.3-.777-.941-.071.184-.533.252-.762.153a.362.362,0,0,0,.1-.456c-.6.139-.884-.4-1.48-.261-.49-1.332-1.457-1.686-1.508-2.871C52.176,120.369,51.451,117.994,53.148,117.073Z" transform="translate(180.995 121.542)" fill="#ef6f71"/>
      <path id="Path_6594" data-name="Path 6594" d="M50.776,121.245c.13.351-.573.544-.8.442a.7.7,0,0,1,.133-.74C50.277,121.162,50.73,120.749,50.776,121.245Z" transform="translate(197.194 128.648)" fill="#ef6f71"/>
      <path id="Path_6595" data-name="Path 6595" d="M65.529,129.141c.59,1.156,1.292.969,1.686,2.253-.363.04-.15.332-.391.425a1.063,1.063,0,0,0-.813.034c-.094-.471-1.346-.408-1.275-1.168-.8.091-1.213-.711-1.579-1.6C63.979,128.192,64.773,129.153,65.529,129.141Z" transform="translate(143.296 142.876)" fill="#ef6f71"/>
      <path id="Path_6596" data-name="Path 6596" d="M127.367,38.242c-.224.116-.323-.031-.533.065A2.4,2.4,0,0,1,126.378,40c-.159.17-.442.017-.527.068a2.239,2.239,0,0,1-.028.281c-.66.692-1.958-.349-2.537-.133.079-.641-.578-.453-.59-.465-.128-.125.025-.332-.017-.405-.06-.1-.295-.011-.383-.272-.074-.235.207-.649-.125-1.052.071-.337.351.037.315-.261-.7-.649.694-1.219.652-1.9.6-.232,1.2-.459,1.808-.689v.062a.769.769,0,0,1,.5-.408.081.081,0,0,1,.091.065.077.077,0,0,1-.065.088.586.586,0,0,0-.36.272c.014.04.028.077.04.116.312-.068.181-.32.558-.351.1.366.187.4.334.15.428.969,1.137,1.318,1.491,2.466C127.4,37.8,127.228,37.953,127.367,38.242Z" transform="translate(-84.295 -29.335)" fill="#ef6f71"/>
      <path id="Path_6597" data-name="Path 6597" d="M109.72,36.238a.162.162,0,0,1,.091-.074A.865.865,0,0,0,109.72,36.238Z" transform="translate(-31.273 -26.869)" fill="#ef6f71"/>
      <path id="Path_6598" data-name="Path 6598" d="M75.2,182.063c-.215-.3.147-.337.057-.578l0,0a.888.888,0,0,1,0-.377.063.063,0,0,1,.071-.06.062.062,0,0,1,.057.071.893.893,0,0,0,0,.3,7.885,7.885,0,0,0,.714-2.055c-.139-.652-.5-.813-.675-1.4a1.911,1.911,0,0,1-1.236-.357c.2-.813-1.278-.51-1.156-1.213-2,.323-3.909,1.76-5.564,2.4a2.614,2.614,0,0,0-1.729-1.27c-1.417-2.557,2.041-3.036,2.914-4.291a4.042,4.042,0,0,0,2.494-1.777c-.241-.473.011-.726.162-1.029-.385-.122-.184-.5-.23-.6-.425-.9-1.6-1.633-2.4-2.673-1.3.244-3.529.383-4.872.624-1.533-1.2-1.071-3.126-.6-4.467.159-.06.32-.119.482-.181-.162-.921.7-1.514,1.559-1.7.19-.711-.244-.408-.533-1.04.4-.085.431-.334.462-.587-.473-.782.2-1.907-.5-3.121.782-.377-.74-1.468-.68-2.5a15.836,15.836,0,0,0-2.3-.224c-.125-.224.074-.3.1-.456-.921.4-2.262-.108-3.013.048a21.749,21.749,0,0,1-.876-2.284.365.365,0,0,1-.323-.139,2.018,2.018,0,0,1-.405.031,1.123,1.123,0,0,0-.459.065.179.179,0,0,1-.235-.1.185.185,0,0,1,.1-.238,1.558,1.558,0,0,1,.59-.085,1.487,1.487,0,0,0,.411-.048l-.028-.04c.689-.184,1.264-.156,1.188-.87,1.3-.663,2.3-.978,3.566-1.5a4.074,4.074,0,0,0-.853-3.673c-.6.213-.847-.337-1.505.023-.1-.363-.19-.4-.334-.145.17-.57.456-.873.142-1.44-1.052-.176-2.109-.34-3.2-.431-.269-.238.048-.686-.23-.6-.111.17-.247-.074-.646.111a4.365,4.365,0,0,0-1.258-.76c-.66-.164-1.635.385-1.978-.487a7.855,7.855,0,0,0,2.256-.587c.425-.309.252-.692.615-.927a31.484,31.484,0,0,1,5.754-1.919A5.082,5.082,0,0,0,60.812,135a1.525,1.525,0,0,0,.051-1.681c.47-.252.5-.7.187-1.309.649-.17.06-.2.1-.453.034-.181.2-.317.224-.5a9.18,9.18,0,0,0,.218-1.6c-.017-.9-.516-2.078-.459-3a19.711,19.711,0,0,1-2.069-3.617c-1.046-.36-.692-2.114-1.389-2.919a8.373,8.373,0,0,0,1.607-.476c-.51-.32.4-.9.448-1-.255-.723-.054-1.709-.782-2.049-.269-1.179-1.009-1.309-1.4-2.225-1.02-.317-1.712-.394-2.6-.663-.062-.159-.122-.323-.184-.482-.581.184-.8-.448-1.36-.306-.394-.983-1.409-.567-1.967-1.179-.317-.113-.145.065-.482.184-.071-.136-.111-.351-.258-.317a.618.618,0,0,0-.317.258,3.081,3.081,0,0,0-2.1-.442c-.431-.357-1.287-.765-1.769-.289-.618-.989-1.993-.3-2.659-1.19-.2.453-.422-.2-.819.037-.448-.85-1.511-.337-2.114-.85.085-.065.235-.094.193-.21a2.585,2.585,0,0,1-1.839-.122,1.741,1.741,0,0,1-2.191-.686c.133-.074.06-.238-.014-.405a2.528,2.528,0,0,1,1.111-.7,8.238,8.238,0,0,1,1.811.408,3.557,3.557,0,0,0,1.236.357c.632.079.967.241,1.48.264a2.186,2.186,0,0,0,1.012-.249c.074.133.108.351.261.317,1.105-.391,1.647.473,2.554.538.734,1.6,2.523.649,3.251,1.655.193-.408.456.295.935-.079.479.561,1.315.326,1.828.819.918-.2,2.378.343,3.71-.04,1.862,1.5,4.11,1.1,5.975,2.273,1.2-.156,2.46-.961,2.086-1.763.06.085.156.1.283.028a2.714,2.714,0,0,1,1.017-2.044,6.146,6.146,0,0,0-1.023-3.75c.836-.493.385-1.559.3-2.46-.918-.629-.83-2.392-1.335-3.492.238-.394.655-.706.479-1.284,1.326-.952,3.361-1.363,4.529-1.868a5.111,5.111,0,0,0,.091-2.656c-.142-.252.108-.479.054-.573-.139-.261-.351-.1-.425-.391s.19-.561-.034-.813c-.119.048-.238.091-.36.139-.564-1.3-1.423-1.837-2.106-3.336-1.176-.36-2.46-1.1-3.92-.159-1.241-.249-2.386-.428-2.744-2.123.235-.55.573-.89.187-1.315,1.261-1.363,1.326-3.223.629-5.209.363-.564.1-.9-.017-1.511a14.244,14.244,0,0,0-.2-1.582c-.3-.757-1.094-1.035-1.383-1.817-.122-.332.176-.709-.2-.887.53-.028.281-.485.057-.578.485-.079.536-.354.419-.706.6-.065.346-.513.87-.609a16.328,16.328,0,0,1,.839-3.217,17,17,0,0,1-.283-1.822A9.3,9.3,0,0,0,56.2,65.843c-.04-.315-.485-.816-.249-1.006-.034-.167.556-.768.249-.785a3.312,3.312,0,0,0,2.571-1.95,7.079,7.079,0,0,1-.088-2.035,1.852,1.852,0,0,1-.652-.995c.561-.079.15-.6.368-.828a13.135,13.135,0,0,1,3.245-.547,3.685,3.685,0,0,1,1.93-1.434c-.431-.431,1.389-.737,1.788-1.091a2.589,2.589,0,0,0,.672-1.5c1.3-.978,1.04-2.585,1.565-3.492-.493-.524.456-1.256.031-2.083.887-.694-.193-2.253-.487-2.712-.128-.207-.139-.493-.272-.717-.414-.7-1.114-1.369-1.431-1.941-.116-.21-.006-.391-.111-.649-.4-1.026-1.431-1.976-1.437-3.038-.884-.351-1.44-2.367-1.451-3.447,2.721.1,1.635,5.122,4.079,5.618.094.4.439,1.088,1.015.853.1.726.567.666.969.737-.184.139.238.791.59.465.292,1.128,1.105,1.077,1.939,1.462,1-.419,1.44-1.088,2.469-1.491-.4-.788.714-1.647.332-2.749a.355.355,0,0,0,.266-.38c.913-.315,2.284-.309,2.341.346.442-.241.615.119.981.043.519.85,1.355.981,2.508.419-.014-.83.952-1.307,1.2-2.253a2.427,2.427,0,0,1,2.959.527,17.464,17.464,0,0,0,4.4-1.131,2.479,2.479,0,0,1,1.927-2.528,4.034,4.034,0,0,1,1.856,2.324c.881.771,2.84-.02,3.438-.445-.011.02-.011.048.014.094a3.8,3.8,0,0,1,1.672.048c.666,1.5,1.692,1.086,2.7,2,1.392-.658,1.579-1.332,2.931-2.08.213.51.811,1.035,1.091.686a2.912,2.912,0,0,0,1.715,1.964,9.617,9.617,0,0,0,1.805,2.208,12.539,12.539,0,0,0,1.185.93,7.631,7.631,0,0,1,1,1.548c.717,1.02,1.562,2.075,2.253,3a5.4,5.4,0,0,1,2.44,1.686c.728.295,1.346-.116,2.273-.179.323-.02.411.235.788.252a3.02,3.02,0,0,0,1.805-.692c.368-1.616,2.214-1.443,3.653-2.358a2.313,2.313,0,0,1,3.081-1.318,1.083,1.083,0,0,1-1.258,1.032.361.361,0,0,1-.1.456c-1.825.643-3.591,2.347-5.725,3.43.091.553-.482,1.063-.7,1.783a6.413,6.413,0,0,0-.1,3.35,31.438,31.438,0,0,1,1.38,3.611c.077.408-.028.842.054,1.222.153.726.539,1.38.66,2.1.1.544-.079,1.015.023,1.505a7.437,7.437,0,0,0,1.678,2.945c1.179.822,2.562-.8,3.872-1.063.323-.292.042-.913.658-.8a13.262,13.262,0,0,0,.442-2.1c0,.023-.2-.06-.213-.193-.082-1.247-.1-3.86-.924-5.306.385-.881-.419-1.746-.6-2.667-.181-.9.258-1.664.06-2.369a6.484,6.484,0,0,0,.584-.635c.587-.289.745.618,1.148.113-.065.7.819.519,1.258.762.459,1.386.932,2.63.38,3.166.6.9-.428,2.146.068,3.424.108.281.6.675.822,1.063a17.41,17.41,0,0,0,.975,1.837c.391-.278.584.153.9.207.794.133,1.477-.315,2.324-.062.83-.439,1.326-.139,2.14-.539a3.818,3.818,0,0,0,.026-3.183c.624-.819.006-2.194.315-3.155-.493-.836-.048-1.834-.077-2.732-.011-.292-.207-.592-.2-.884,0-.085.21-.074.2-.213-.048-.629-.088-.754.116-1.151a11.829,11.829,0,0,1,1.8-.689c.434.6,1.142.728,1.488,1.363.618,1.148.037,2.367.232,3.5-.2.655-1.179,1.287-1.134,2.089a8.059,8.059,0,0,0,.57,1.848c.337.884.842,2.245,1.613,2.42a2.5,2.5,0,0,0,.485.918c1.545.2,5.618.658,4.8-2.248a3.768,3.768,0,0,0,.876-2.4c1.358-1.474,2.834-.765,3.478,1.156-.5.142-.255.615-.488.879.587.794-.326,1.856-.094,2.653a2.009,2.009,0,0,0,1.893,1.346c.255.487.445.521,1.046.567-.088.06-.1.153-.028.289,1.309-.4,1.913.782,2.9,1.1-.085.062-.235.094-.2.215.666-.524,1.386.374,2.4-.227.068.283.2.439.419.385a23.252,23.252,0,0,1,2.789-.646c.9-.842,1.465-2.48,2.165-3.724-.023-.193.065-.258-.139-.363.692-.723,1.091-1.576,2.233-2.1a1.358,1.358,0,0,0,1.343-.1c.071.142.147.269.332.15.921,1.128,1.318,3.534.57,4.745a1.753,1.753,0,0,1,.031,1.511c.629.624.884,1.287,1.528,1.485.692,1.732,1.36,4.05,2.746,5.02.794.014,1.264.745,2.072.726-.187.133.082.147.139.363.516-.5,1.2.391,2.032-.091a.893.893,0,0,0,.383.272c.677-.332,1.111-.1,1.7-.238.136.587.649.332.995.448-.082.062-.1.153-.026.286.913-.2,1.545.7,3.019-.051-.042-1.315.726-2.267.536-3.648.4-.088.524-.374.221-.5.853-.077,1-1.7,1.8-1.791-.278-.374.417-1.446.955-1.471a3.652,3.652,0,0,1,.686-1.088c2.54-.17,5.6-1.4,4.546-4.359.635-.5.995-1.536,2-2,.765-.357,4.529-.9,4.8-.451a1.628,1.628,0,0,1,1.309.19,5.819,5.819,0,0,0,2.123-.947,2.947,2.947,0,0,1,.995-2.452c.153-.088.235.162.334.15.388-.04.853-.349,1.292-.221a5.227,5.227,0,0,0,1.944,1.465c.862.091,1.851-.53,2.619-.72-.153-.334.346-.456-.111-.652a4.247,4.247,0,0,1,2.194-1.114c.269.261.768.808,1,.448.088.7.618.405.7,1.108a16.511,16.511,0,0,0,4.042.113c.57-.567.944-1.219,1.477-1.805-.068.026-.139.051-.207.079-.028-.079-.057-.164-.091-.241.077-.031.162-.065.241-.094.031.074.057.15.085.227a3.986,3.986,0,0,1,.833-.714c1.953.176,1.335,2.542,2.3,4.226a2.376,2.376,0,0,1,.862.082c-.04.391.853.615,1.409.431.125.473.607.179.949.326.082.034.054.329.142.363s.261-.167.357-.139c.5.145,1.307.618,1.661.745-.043-.02.085-.269.2-.21.306.142.663.609.924.609.077,0,.164-.23.2-.215.145.074.227.417.519.632.247.187.658.2.83.374.383.383.286.709.49.915.147.153.539.122.833.368.609.524.541,1.4,1.3.884.612.714,1.655.471,2.48.709.513.762,1.23.482,1.335,1.7-1.2,1.465-.221,2.942.456,4.79a5.248,5.248,0,0,0,2.585,3.152c.286-.34.992.3,1.55.1.116.564.5.527.879.493.524,1.074.893,1.386.618,1.973-.079-.13-.244-.06-.411.017-.088.927-1.213,1.386-1.326,2.3.213.411.615,1.023.431,1.488a3.964,3.964,0,0,1,1.7,2.664c-.181.519-.641.91-.672,1.5-1.434.283-1.066,1.377-1.369,2.174a26.675,26.675,0,0,1,1.57,3.4c-.709.646-.921,1.514-2.157,1.93.249.507-.434.607-.448.995.93,3.013.658,5.49-2.069,6.862.227.632-.278.944.071,1.63-.493.213-.425.675-.4,1.12a5.74,5.74,0,0,1-1.8,1.794c.459.2-.13.176-.1.448a1.863,1.863,0,0,1-.051,1.678c-1.111.139-1.7,1.471-2.826,1.63-.388.054-.261.164-.675.4-1.088.615-1.542.757-2.012,1.6a2.538,2.538,0,0,1-.329,1.627l.048-.02a.087.087,0,0,1,.1.048.077.077,0,0,1-.045.1l-.062.028c.173.388-.337,1.086-1.054,1.21,0,0-.139-.19-.213-.193-.6-.009-.629-.193-1.071-.283-.771-.153-1.525.1-1.528-.38-.907.556-1.865.334-2.931.984a.626.626,0,0,1,.014.411c-1.063.6-2.052.125-2.86.813-.213.179-.037.459.017.408-.368.354-.822.436-.972,1.06-.065-.082-.1-.235-.213-.193.119.652-.779.847-.836,1.42.1.442.139,1.375.666,1.4a4.938,4.938,0,0,1-.3,2.46c-.383-.006-.745.071-.459.592-1.032.442-1.426.556-2.531.964-.082.065-.1.156-.026.289-.9-.289-1.165.587-2.095.66.014.479-.21.87-.19,1.312,0-.048.266-.034.286.028a4.887,4.887,0,0,0-.176.621,10.223,10.223,0,0,0,1.142,1.907c.53.3,1.278.128,1.811.414,1.7-.184,2.338,1.137,3.169,2.514.51-.32.762-.06,1.176-.173-.037-.139-.244-.125-.094-.241.967-.011,1.224-1.366,1.893-1.55-.136-.728.607-1.06.414-1.811,1.389-.83,1.151-2.545,1.108-3.6a1.768,1.768,0,0,0,.55-1.448c1.281-.488.269-1.845.207-2.7.145.269.269-.261.439-.3.652.008,1.162,2.276,1.531,1.479.422.3-.048.629.32.847.164-.1.128-.281.272-.383a1.86,1.86,0,0,0,.822,1.066c-.034-.142-.153-.332-.02-.405.329.371.3.941,1.018.853a.4.4,0,0,0-.153.332c.258-.346.958-.051,1.3-.215.048-.026-.136-.281.028-.286.04,0,.153.3.255.315.431.042.989-.187,1.315.187.136-.419.737-.017.981.04a2.455,2.455,0,0,0,1.82-1.383c-.672.346.487-.584.156-1.026.913-.317,1.281-.859,2.126-.947.266-.15.065-.5.465-.6a9.571,9.571,0,0,1,3.174-1.074c.462.147.867.442,1.553.1.15.556.706.215,1.074.281.357.048-.077.442.306.434a25.575,25.575,0,0,0,3.152.315c-.082.06-.238.1-.2.213,1.613-.618,2.443.15,3.917-.944-.581-.272.59-.822-.006-1.1a.841.841,0,0,0,.556-.349c-.1-.15-.261-.164-.306-.439.479-.5.672-.465.612-.921.462-.048,1.134-.283,1.539-.312.2.411.445.17.4.675.232-.524.326.4.74.133a8.182,8.182,0,0,1,.737,1.927c.6.193.55.961.986,1.139.3-.309.666-.193,1.134-.292.385-.921,2.925-2.248,2.557-1.256,1.25-.125,1.281,2.483,2.1,3.339a3.357,3.357,0,0,0,2.415.184,2.644,2.644,0,0,0,.853-1.02c-.006.045-.332.045-.283-.025s.394-.147.553-.351c.516-.655.411-1.355,1.771-1.5.184.6.751.366,1.134.8.8.91.777,2.6,1.066,3.872.655.354.774.748,1.349,1,.8-.343,1.63-.215,2.307-.465.088-.031.357-.405.391-.428a3.089,3.089,0,0,1,1.655-.354c.13.028.3.414.47.507.527.286.9.283,1.21.641.19.221.042.564.159.771.074.142.451.337.635.584a5.989,5.989,0,0,1,.836,1.474c.666-.147.87.74,1.576.5a7.3,7.3,0,0,1,1.82,4.413c.706.462,1.06.907,1.635,1.026,1.817.377,3.245-1.462,4.634-2.321.933-.575,1.91-.615,2.678-1.3.017-.014-.113-.224-.1-.241.334-.249,1.015-.417,1.233-.745.02-.026-.116-.224-.091-.241a5.354,5.354,0,0,1,1.083-.414c.286-1.035,1.777-1.355,2.219-2.5a1.856,1.856,0,0,0,.842-.32c-.309-.918,1.791-1.961,2.092-.663-.36.915-1.488,1.278-2.4,2.024-.507.414-.808,1.094-1.244,1.44-.785.624-1.72.779-1.723,1.621a3.818,3.818,0,0,0-2.242,2.792c-.728.275-.819.833-1.672,1.052.048.119.094.238.139.36-.224.125-.3-.068-.451-.1-.02.952-1.247,1.08-1.729,1.624.113.663-.425,1-.334,1.647.2,1.463,1.706,2.307,2.248,3,.153-.062.111-.215.315-.258.116.218-.031.32.068.527.385-.357.978-.014,1.655-.354.445.323,1.114.5,1.516,1.077.49.7.428,1.6.706,2.211-.55,1.409-1.009,2.67.2,3.787.077.071.383.02.453.1a15.513,15.513,0,0,1,1.587,2.707,20.394,20.394,0,0,0,3.336.794c.493.346.15.32.607.87.249.295.419.082.547.343,1.256,2.511-2.126,2.6-3.809,3.39.258.315-.19.312-.391.425a13.572,13.572,0,0,0,1.105,7.579c.147-.354.434-.227.5.227.8-.49,1.528,1.009,2.6.66.391-.694-.1-1.774.136-2.537a1.838,1.838,0,0,1,2.622-.723c.034.02.3.694.23.6.079.1.207-.116.332.15.218.471.091,1.069.434,1.488-.179.2-.652.419-.179.624-1.5,1.026-2.3.714-3.812,1.593.19,1.4-.281,2.97-2.1,3.149.085.436-.606.527-.949.774-.907,1.718.533,4.331.266,6.108a6.268,6.268,0,0,1-3.291,2.219c.385.179-.147.34-.221.5a9.884,9.884,0,0,0-.626,1.618c-.2,1.018.7,1.148.859,1.879.856-.2,1.128.9,1.873.938.2.521.4,1.046.6,1.567-.947,1.593-3.665,1.264-5.255,1.04a.9.9,0,0,1-.918.49c-.034,1.247.218,2.29.323,3.738-.652,1.545-3.464,1.817-4.7,2.491-.425,1.275-1.38,2.126-1.111,3.591.281,1.514,1.686,2.684,2.35,4.348-.578.1-.87-.428-1.332-.6a17.635,17.635,0,0,1-1.834.978,13.613,13.613,0,0,1-1.956,1.023c-.519.111-1.145-.283-1.72-.17a7.269,7.269,0,0,0-1.831.978c-1.015.388-2.171.264-2.837.53a2.908,2.908,0,0,0-1.528,1.409c-.981.434-.947,1.309-1.8,1.794.034,1.545-1.63,2.33-2.542,3.452.4,1.828.544,4.05.774,5.64.119.808.513,1.567.635,2.378a13.13,13.13,0,0,0,.116,1.749c.371,1.324,1.352,2.741,1.018,3.753a.827.827,0,0,0-.556.349c-1.256-1.125-.788-2.71-1.154-4.113-.071-.261-.366-.524-.445-.8-.711-2.429-.675-5.623-1.465-7.44-.142-.332-.513-.394-.439-.8-1.162-.238-2.381.247-2.177,1.522-.3.283-.813.17-.995.655.04,1.1.788,2.378.522,3.526-1.091.306-.864-.522-.958-1.426-.119-1.108-1.179-1.882-1.077-3.174-.519-.334-1.131-.422-1.684-1.151-.476.1-.76-.23-1.261-.071-.077-.136-.113-.349-.261-.317-1.318-.626-3.126-.153-5.11.711-1.292,1.412-1.292,4.039-4.062,4.172a11.766,11.766,0,0,0-1.349-1c-.434-.876-.879-3.282-2.106-3.336a2.616,2.616,0,0,0-1.9,1.142c-.36.2-.445-.2-.743-.13-1.213,1.42-.723,3.6-1.44,5.243-.346.227-.207.17-.607.23a16.874,16.874,0,0,1-.83,2.525,1.105,1.105,0,0,1-.771.156c-.337-3.4-1.9-5.8-1.154-8.8a2.719,2.719,0,0,1-.264-1.417c-.3-.737-1.933-.632-1.514-1.08-.524.371-.918-.2-1.363-.306-.1-.026-.119.224-.2.21s-.224-.241-.377-.266a9.679,9.679,0,0,0-1.193-.235c-1.216-.031-2.165.658-3.149.788-.258.55-.626,1.052-.91,1.593-1.545.428-3.186.241-3.495-1.565,0-.011.2-.128.2-.213a14.382,14.382,0,0,1-.264-1.414c.006-.13.334-.326.295-.666a1,1,0,0,1,.13-.743,11.322,11.322,0,0,1-1-1.545,8.94,8.94,0,0,0-4.308,1.366c-.615-.482-1.531-.292-2.188-.68-.269-.816-.734-2.052-.079-2.729a4.778,4.778,0,0,1,.785-2.644c-.057-1.244-1.066-1.4-1.341-1.695-.241-.269-.315-.788-.485-.921.045.037-.085.255-.2.213-.329-.1-.128-.811-.337-.147a2.8,2.8,0,0,0-1.633-1.029c-2.012.468-3.237,1.545-4.974,1.071a4.606,4.606,0,0,1-1.247-2.557,19.009,19.009,0,0,1,1.743-3.013,3.564,3.564,0,0,0-3.036-3.257c.38-.34.128-.862-.006-1.1-.621-1.083-2.843-.607-4.064-.519-.119-.4-.363-.527-.711-.417-1.545.924-1.777,2.049-3.18,2.868.272.762-.485.986-.337,1.647.2.887,1.82,1.715,2.69,2.7.425.488.519.995,1.035,1.261,1.513-.014,2.083-2.146,3.563-1.5-.5.21-.55.618-.734.972-.751.329-1.516.649-1.576,1.292a11.8,11.8,0,0,0,1.4,2.222c.414-.334.428.241.74.133.156.819,1,.918,1.411,1.531-.009-.017-.176.295-.1.451.122.272.7.275.516.632-.281.473-.156,1.128-.5,1.57-1.48.774-2.256-.017-3.276-.264.031-.434-.405-.578-.612-.876-1.148-1.692-2.355-3.619-4.283-2.911-.323-.958.476-.794.337-1.65-.34-.065-.581-.334-.949-.323-1.094-1.514-2.65-.93-4.62-.17.091.553-.624.524-.326.955-.626-.122-.247.468-.87.607a6.84,6.84,0,0,0,.482,5.609,8.552,8.552,0,0,0,.9.9c.011.02-.125.244.017.408.309.354.794.5,1.015.853.266.419.343,1.054.6,1.567.709,1.406,1.207,2.123.473,3.407a1.761,1.761,0,0,1-2.534-.139c-.147.068-.108.215-.315.261-.227-.19-.533-.794-.711-.42-.312-.992-.677-1.44-.539-2.137-1.341-.83-1.278-2.449-2.168-3.863-.122.043-.241.088-.36.136a14.882,14.882,0,0,0-1.309-1.984,2.263,2.263,0,0,1-1.193-.232c-1.015.2-1.57,1.066-2.361,1.037-.417,1.916-2.284,3.767-3.512,5.62a7.514,7.514,0,0,0,1.582,4.5c.8.042.907,1.369,1.411,1.533-.74.743.533,1.593-.017,2.486-1.134,1.508-2.888.218-4.053.587a3.416,3.416,0,0,0-1.737-.581c-.734.74-.978,1.692-2.188,2.216-.21-.232-.828-.136-.638-.584-.434.428-1-.536-1.5-.672-.17-.887-.59-1-.519-1.729-.111.026-.159.266-.241.094-.334-.731-.587-2.562-1.559-3l.008-.011c-.145-.051-.255-.088-.346-.116s-.176-.068-.255-.094l-.023-.011-.017-.02a.538.538,0,0,1-.051-.349l-.074.065c-1.57.351-3.727.445-5.212,1.162-.173.082-.5.507-.825.728-.612.411-1.117.439-1.4.675-.077.062-.062.411-.1.451-.459.459-.519.283-.828.728-.147.215-.269.411-.343.544-.218.366.017.4.037.816.02.468-.215,1.088-.147,1.431a1.406,1.406,0,0,1,.037.819c-.2,2.072,1.321,1.6,1.579,3.4.147-.043.295-.074.332.147a7.883,7.883,0,0,1,1.383,4.716,5.614,5.614,0,0,1-2.2,1.108c-.425-.417-1.247-.326-1.754-.981a9.666,9.666,0,0,1-.462-1.2c-.726-1.5-1.309-2.559-.924-3.515a11.654,11.654,0,0,1-1.315-3.081,5.5,5.5,0,0,1-1.264-1.862c-.354.17-.4-.7-.621-.179-.113-.218.034-.317-.059-.524-.728-.17-1.284-.711-2.075-.728-.32.522-1.536.1-2.021.493-.641-.646-1.788-.471-2.576-.258a6.719,6.719,0,0,0-3.189,1.774c.329.737-.128,1.562-.513,2.262a28.061,28.061,0,0,0,.4,3.571c.13.516.42,1.026.6,1.57-.329.289-.221.768-.071,1.267a5.725,5.725,0,0,0-.164,2.82l-.068.06.017.014a1.441,1.441,0,0,1,.122.411c.011.057.026.113.04.167l0-.006a9.592,9.592,0,0,1,.473,1.613c-.847.448-1.542-1.253-.717-1.516l.025.009c-.023-.074-.043-.15-.057-.221s-.026-.13-.045-.2c-.306.006-.15-.147-.244-.436a5.166,5.166,0,0,0-3.251,1.241c-.074.3.145.734.128,1.052-.329.142-.317-.1-.482.187-.21-.323-.522-1.6-.238-1.7-1.25-2.171-.87-3.945-1.077-6.071a1.074,1.074,0,0,0,.49-.879c-.357-.519-.094-1.091-.5-1.326.822-.218.088-.6.065-1.264.176-.088.462-.128.439-.306-.13-.567-.258-1.44-.468-2.3a23.937,23.937,0,0,0-3.991-1.786c-.2.074-.4.153-.6.227-.473-.2-1.165-.876-1.57-.5-.351-.482-.9-.521-1.6-.218-.045-.354-.34-.13-.5-.221-1.451.312-1.78,1.38-2.925,2.086.02.607-.436,1-.5,1.57.785,2.08-.343,4.175-.884,5.995a2.468,2.468,0,0,1-2.063.371c-.244-.8-.864-.743-1.128-1.5.462-.309.1-.609-.1-1.346.615-.451.326-1.315.655-1.9-.439-.36.145-.337-.2-.887.13-.074.346-.111.312-.261a1.1,1.1,0,0,0-.153-.771c.652-.2.482-.779.309-1.355.618-.323.371-1.035.5-1.573-.584-.828-.8-1.321-1.786-1.8-1.511.085-1.752,1.434-2.642,2.112.227.34-.074.434.153.771a6.1,6.1,0,0,1-2.568,1.947c-.043-.414-.6-.173-.83-.374.025.023.255-.139.2-.213a5.871,5.871,0,0,1-1.329-2.389c-.034-.315.451-.4.085-.859a2.055,2.055,0,0,0-.921,2.282c-.626.408-.332,1.57-.961,2.248a.181.181,0,0,1,.179.077.184.184,0,0,1-.051.252,1.017,1.017,0,0,1-.2.113l-.017.006.031.04c.057.615-.864,1.244-.292,1.766a1.3,1.3,0,0,0-.59.641c.071,1.159-.995,1.814-.6,3.126-.573.36-.306.547-.445,1a.63.63,0,0,1-.405.017v-.031c-.037.028-.071.057-.108.082.59.181.113,1.42-.278,1.474a1.085,1.085,0,0,1-.077-1.471.155.155,0,0,1,.043-.1l.042-.034.043-.065,0,.031q.055-.051.119-.1c-.034-1.55.734-2.154.159-3.9.125-.383.59.009.5-.471-.366-.193.034-.252.1-.453.122-.363.051-.83.159-1.026.153-.269.83-.68.428-1.406,0-.232.575-.21.513-.473-.082-.8.371-1.363.439-2.1.578-.343.487-.981.836-1.426-.286-.655.448-.864.1-1.553.655-.439.561-1.21.485-1.978-.8.147-.326-.23-1.026-.162-1.12.332-2.279.72-2.208,1.811-.459.094-.527.363-.748.561-.269-.238-.085-.4-.306-.436-1.131.519-1.074.955-2.389,1.329-.859-.445-1.411-.292-1.828-.816-.887-1.114.074-3.945-1-5.141-.584.048-.93-.439-1.451-.547-.972.405-2.27.777-2.446,1.9.227.3-.051.38.108.646-.485.451-.363,1.173-1.239,1.443.408.264-.879.873-1.312.91a7.35,7.35,0,0,1-1.978-.482c-.136-.36-.272-.723-.411-1.086.357-.19.689-.584.176-.621.244-.255.706-.411.323-.949.162-.06.323-.122.485-.184-.111-1.377,1.137-2.154.323-3.846-.544-.014-.694-.74-1.06-.975-.06-.04-.295.147-.36.136-.269-.034-.38-.425-.592-.462.031.15-.142.2-.317.255-.21-.643-.779-.493-1.207-.638-.4.456-1.131.76-.958,1.468-1.032.8-1.29,1.953-2.415,2.712-.06-.082-.091-.235-.21-.193-.745,1.329-2.562,1.312-3.8.9a1.942,1.942,0,0,1-1.913.04c.085-.516-1.012-.476-.777-.941-.173.02-.295-.088-.527.062-.536-.828-1.341-1.428-1.42-2.633-.323.119-.641.244-.964.371.184.377-.371.431-.252.782-1.48.7-1.658,1.987-2.273,3.075-.519-.068-.422.213-.8.442-1.256-.578-1.933.938-2.749,1.465l-.011-.048a1.176,1.176,0,0,0-.187.2.174.174,0,0,1-.068.054.157.157,0,0,1-.184-.238,1.381,1.381,0,0,1,.247-.258l-.057-.02a3.052,3.052,0,0,1,1.321-1.61,3.726,3.726,0,0,1,1.8-3.583c-.215-.3.145-.337.054-.575.879-.128.374-1.1,1.139-.986a.715.715,0,0,1,.133-.743c.482.048.6-.927,1.383-1.074-.326-.584.394-.136-.037-.816.428-.306.519-.765,1.142-.986,0-.2.065-.371.054-.575.717-.4,1.233-1.352,1.939-1.431-.272-.5.536-.57.658-.8.034-.06-.051-.366-.017-.4.091-.1.323-.04.485-.184.306-.283.453-.961,1.063-.822-.06-.261.235-.36.176-.624a4.91,4.91,0,0,0-2.642-2.576c-.887.6-1.842.436-2.5.68-.57.215-.777.649-1.275.771l-.045.119v.009c.13.462-.278.68-.6.938-.153-.06-.641-.468-.4-.675.224.247.252-.408.683-.4v0a.907.907,0,0,1,.142-.283l.028-.023-.023-.028c-.147-.465.533-.561.445-.995-.2-1.278-1.156-2.831-1.61-4.215a4.227,4.227,0,0,0-1.307-1.987c-.062-.159.164-.19.145-.329-.238.057-.213.235-.434.3-1.3-.881-2.916.323-4.566,1.054C74.394,185.79,73.864,182.534,75.2,182.063ZM202.152,58.241a4.172,4.172,0,0,0-3.081,1.315C199.814,60.353,202.1,59.21,202.152,58.241ZM171.831,209.057c.1.028.21.068.351.119l0,.006.009-.014c-.218-.071-.32-.394-.607-.315a.415.415,0,0,0,.017.125C171.675,209,171.749,209.023,171.831,209.057ZM128.637,94.05c.493.255.782.176,1.335.6.119-.082-.011-.269.147-.334-.306-.658-1.077-.264-1.5-.672C128.2,93.817,129.031,93.939,128.637,94.05Z" transform="translate(-17.266 -28.037)" fill="#ef6f71"/>
      <path id="Path_6599" data-name="Path 6599" d="M70.854,89.644c.439-.986,1.978-1.137,2.678-1.3C73.119,89.154,71.917,90.458,70.854,89.644Z" transform="translate(115.163 68.848)" fill="#ef6f71"/>
      <path id="Path_6600" data-name="Path 6600" d="M66.411,97.5c-.128.485-.213,1.672-1.046,1.227C65.444,98.258,65.9,97.436,66.411,97.5Z" transform="translate(137.842 85.627)" fill="#ef6f71"/>
      <path id="Path_6601" data-name="Path 6601" d="M107.007,120.514l.025.014a7.862,7.862,0,0,1,.139-.859c.026-.111.051-.224.071-.34-.077-.125-.2-.145-.258-.326a18.6,18.6,0,0,1,.893-2.664v-.009a.931.931,0,0,0,.023-.349l-.008-.043.028-.037a1.019,1.019,0,0,1,.2-.193.1.1,0,0,1,.133.026.1.1,0,0,1-.028.133.853.853,0,0,0-.122.125,1.106,1.106,0,0,1-.034.354l.108-.006c.544.283-.312.924.275.723a2.424,2.424,0,0,0-.32,2.052c-.295.059-.19.3-.516.343-.02.1-.037.2-.057.289a7.384,7.384,0,0,0-.13.782c.32.762-.21,1.151.031,1.882a1.146,1.146,0,0,1-1.054.125c-.074-.295.045-.587-.278-.72C106.758,121.528,106.449,120.828,107.007,120.514Z" transform="translate(-19.726 119.014)" fill="#ef6f71"/>
      <path id="Path_6602" data-name="Path 6602" d="M59.73,112.963a1.189,1.189,0,0,0-.017-.136l-.014-.091a.079.079,0,0,1,.065-.088.081.081,0,0,1,.091.065l.011.088a.785.785,0,0,1,.011.261l.077-.059c.074.6.193,1.222-.553,1.454C59.064,113.759,59.2,113.275,59.73,112.963Z" transform="translate(161.671 113.425)" fill="#ef6f71"/>
      <path id="Path_6603" data-name="Path 6603" d="M107.97,102.969c-.02-1.176.9-1.93.884-3.1.2-.108.652-.1.388-.425-.023-.082-.034-.153.077-.164.329.156.822-.054,1.222-.057.113.7.944.924,1.244,1.457a5.037,5.037,0,0,1,.4,1.777c.057.269.269.558.323.842.153.794-.343,1.783-.091,2.659.2.677.272,1.44.541,2.14-.286.068-.442.2-.388.422.836,1.511-.881,2.282-2.106,3.155-.612-.346-.808-.626-1.3-.884-.125-1.077-.558-2.233-.8-3.56-.079-.417.04-.873-.051-1.222-.074-.238-.354-.434-.4-.675-.139-.757.207-1.516-.249-2.106C107.788,103.151,108,103.117,107.97,102.969Z" transform="translate(-28.579 88.804)" fill="#ef6f71"/>
      <path id="Path_6604" data-name="Path 6604" d="M103.286,130.125a5.362,5.362,0,0,1,.5-2.676c-.346-.556.15-.731-.051-1.222.833-.924.4-2.412,1.035-3.43a10.351,10.351,0,0,1,1.094-4,3.623,3.623,0,0,1,.485-1.981c-.315-.706.317-.989.051-1.675,1.114-1.23.836-3.087,1.1-4.7.136-.068.351-.111.317-.255.238-2.188,1.338-3.994,1.485-6.23,1.644-.368.456,1.182.825,2.171a1.86,1.86,0,0,0-.714,1.377c-.006.1.17.266.136.363-.15.5-.87,1-.5,1.573-.289.071-.439.2-.388.422.241.612-.247.893-.312,1.36a10.864,10.864,0,0,1-.927,4.079,1.132,1.132,0,0,0,.156.768c-1.063.521-.32,1.856-1.114,2.494.3,1.3-.6,2.746-.6,4.226-.728.19-.113.459-.658.811.317,1.278-.249,1.964-.6,3.123a6.509,6.509,0,0,1-.873,3.5A.352.352,0,0,0,103.286,130.125Z" transform="translate(-13.422 97.38)" fill="#ef6f71"/>
      <path id="Path_6605" data-name="Path 6605" d="M73.517,106.928c1.584-1.222,2.871-.1,3.642,1.23-.054.632-.357,1-.1,1.556-.533.394-.808.9-1.287,1.318a2.724,2.724,0,0,1-3.05-2.559A4.327,4.327,0,0,0,73.517,106.928Z" transform="translate(106.231 101.973)" fill="#ef6f71"/>
      <path id="Path_6606" data-name="Path 6606" d="M89.659,117.37a20.674,20.674,0,0,1,.456,3c-.113.312-.624.451-.326.949a3.731,3.731,0,0,1-2.557,1.253,5.483,5.483,0,0,1-2.837-5.263C84.9,114.527,88.59,114.386,89.659,117.37Z" transform="translate(60.351 118.065)" fill="#ef6f71"/>
      <path id="Path_6607" data-name="Path 6607" d="M106.311,35.817a.107.107,0,0,1-.071.125l-.014.006a.11.11,0,0,1-.13-.085,1.028,1.028,0,0,1,.074-.609c.017-.06.043-.119.062-.184a.1.1,0,0,1,.133-.071.1.1,0,0,1,.071.13c-.017.071-.04.133-.059.2A.825.825,0,0,0,106.311,35.817Z" transform="translate(-17.575 -29.019)" fill="#ef6f71"/>
      <path id="Path_6608" data-name="Path 6608" d="M123.446,74a.2.2,0,0,1,.221-.181c.394.037.791.045,1.173.054a11.74,11.74,0,0,1,1.468.094.205.205,0,0,1,.043.391.256.256,0,0,1-.1.009,10.042,10.042,0,0,0-1.412-.085c-.394-.009-.8-.017-1.2-.06A.2.2,0,0,1,123.446,74Z" transform="translate(-86.841 42.201)" fill="#ef6f71"/>
      <path id="Path_6609" data-name="Path 6609" d="M124.668,76.56a.1.1,0,0,1-.079.006.377.377,0,0,0-.142.023l-.059.011a.127.127,0,0,1-.15-.094.13.13,0,0,1,.1-.15l.054-.011a.527.527,0,0,1,.272-.023.134.134,0,0,1,.088.159A.117.117,0,0,1,124.668,76.56Z" transform="translate(-87.355 46.773)" fill="#ef6f71"/>
      <path id="Path_6610" data-name="Path 6610" d="M59.523,113.926a.181.181,0,0,1,.221-.116.175.175,0,0,1,.119.215,2.928,2.928,0,0,0-.1.425.173.173,0,0,1-.108.142.193.193,0,0,1-.088.011.176.176,0,0,1-.15-.2A4.277,4.277,0,0,1,59.523,113.926Z" transform="translate(161.245 115.543)" fill="#ef6f71"/>
    </g>
  </g>
</svg>
