<svg xmlns="http://www.w3.org/2000/svg" width="458.203" height="141.587" viewBox="0 0 458.203 141.587">
  <g id="logo" transform="translate(-880.967 -306.052)">
    <g id="Group_9089" data-name="Group 9089">
      <path id="Path_8566" data-name="Path 8566" d="M980.551,445.686l-1.314-2.006a61.293,61.293,0,0,1-.973-12.912c.192-11.162-.931-22.286-.819-33.458.063-6.3,2.727-8.4,8.515-8.55,4.467-.113,8.94-.036,13.41-.014a24.064,24.064,0,0,0,3.5-.262c2.953,1.711.5,3.366-.056,5.042a1.8,1.8,0,0,1-1.5.114c-.541-.4-.849-1.145-1.735-1.167.281.682,1.54.737,1.089,1.788a6.079,6.079,0,0,0-1.663,5.706c.442,2.854-.073,5.827.321,8.74.035,1.692.027,3.381.042,5.07a37.472,37.472,0,0,1-.225,5.606c-.339,1.562-2.218,3.058-.194,4.727.77,2.068.242,4.271.671,6.375a9.582,9.582,0,0,1-1.516,3.413c.592-.4.769-1.2,1.571-1.175a3.27,3.27,0,0,1,1.454,1.471,1.717,1.717,0,0,1,.186,1.527c-.458.7-1.231,1.061-1.867,1.691a10.46,10.46,0,0,1,1.6-.765,2.587,2.587,0,0,1,1.716.145c.893.453.568,1.091.3,1.775-.319.8.422.7.8.728,2.276.2,4.5.958,6.829-.2,2.619-1.3,5.533-.22,7.78-.535-3.459-.193-7.427.163-11.4.176-1.1,0-2.848.129-2.82-1.277.028-1.37,1.783-1.221,2.889-1.231,9.619-.084,19.239-.052,28.859-.032,1.317,0,2.933.565,3.175-1.6a10.124,10.124,0,0,0,1.463-5.023c.029-1.3.254-2.791,2.033-2.734,1.521.049,1.687,1.394,1.87,2.579.82,5.318.82,5.319,6.2,5.333,1.3,0,2.6-.07,3.886.007,2.386.143,3.948-.8,4.161-3.248.2-2.288,1.571-2.98,3.546-3.076,1.648-.081,3.3.023,4.946-.05,2.826-.126,4.928.533,4.95,3.938a2.247,2.247,0,0,0,2.493,2.378c2.826.093,5.653.075,8.48.01,1.727-.039,2.514-.923,2.6-2.649a116.486,116.486,0,0,0-1.624-26.618c-.57-3.151-1.78-6.151-5.161-7.5-5.305-1.982-10.609-3.4-16.443-2.42-6.412,1.082-10.589,4.594-13.173,10.349-.81,1.806-1.167,3.832-2.57,5.357-1.322,2.724-.812,5.758-1.45,8.6-.28,1.248-.427,2.541-.715,3.8-.267,1.168-.447,2.482-1.943,2.566-1.616.091-1.693-1.216-1.9-2.423-.373-2.117-2.162-1.864-3.626-1.887-6.123-.1-12.248-.017-18.371-.047-5.427-.026-5.458-.244-5.221-5.519.28-6.231.024-12.477.112-18.714.026-1.836-1.365-2.615-2.119-3.871,2.111-3.966,5.984-4.787,9.853-4.937a48.775,48.775,0,0,1,10.367.335c.457,0,.213-.382.071-.336-.985.322-1.828.229-1.573-1.192a2.224,2.224,0,0,1,1.007-.285c12.947.467,25.873-.5,38.795-.892,10.213-.308,20.452-.087,30.643-.882,4.921-.255,9.821.422,14.74.557,4.166.114,8.046-1.61,12.175-1.278.7.056,1.408,0,2.111.023.825.028,1.976-.01,2.1.873.176,1.283-1.258,1.06-2.005,1.5,1.366.584,3.809-.395,4.1,1.482.229,1.47-2.163,1.787-3.29,2.744a6.7,6.7,0,0,1-2.454,1.24c1.592-.3,3.166-.434,4.4.871,1.161,1.224.993,2.814,1.061,4.327a25.115,25.115,0,0,0,.348,4.907c-.254.294.253.15.248-.007-.032-1.14.6-1.342,1.555-.853,1.072,1.791.622,3.768.713,5.676.428,3.741-.736,7.194-2.24,10.585.192.514,1.046.256.575.253-.193,0-.19-.1-.224-.26-.271-1.256.518-1.639,1.5-1.878,2.144,2.368,1.521,4.99.708,7.633a8.53,8.53,0,0,0-1.119,6.376c1.056,4.144-.058,5.56-4.368,5.721a3.889,3.889,0,0,1-2.424-.3c.427.749,1.772.106,1.647,1.227a1.6,1.6,0,0,1-1.083,1.291,8.753,8.753,0,0,1-6.19.025c-.968-.371-2.429-1.227-.154-2.178.5-.21-1.071-1.034.083-1.508a4.1,4.1,0,0,1,1.668-.537c5.984-.761,5.571-.8,6.15-6.938.833-8.824-.474-17.58-.144-26.373.175-4.667-.3-4.951-4.992-4.993-1.176-.011-2.352-.009-3.521.03-2.859.245-3.724,1.956-3.275,4.549a18.727,18.727,0,0,1,.275,4.5c-.222,3.227-1.526,3.947-4.9,2.768a4.942,4.942,0,0,1-.689-.755c-1.539-2.189-2.859-4.6-5.6-5.6a14.174,14.174,0,0,1-2.455-2.5c-2.466-2.725-7.961-4.015-11.32-2.783-1.567.575-1.547,1.863-1.753,3.123-1.141,6.984-.556,14.023-.687,21.04-.044,2.341.025,4.684-.034,7.02a13.555,13.555,0,0,1-1.173,5.1,2.4,2.4,0,0,0,.7,3.161c1.388.957,1.628-.956,2.6-1.047,8.917-1.139,8.886-1.141,9.457-10.3.128-2.065-.163-4.974,1.767-5.71,1.872-.713,3.148,1.98,4.321,3.427,2.439,3.007,5.429,5.532,7.614,8.732,1.415,2.075,3.983,2.365,5.657,3.979-.92,2.247-2.849.678-4.519,1.2,1.21,1.767,4.8,1.676,3.9,4.848-.327,1.164-.211,2.743-2.16,2.588-14.383.211-28.749.65-43.094,1.416a21.5,21.5,0,0,0-7.6-.831,40.088,40.088,0,0,1-4.2-.052c-1.133-.106-2.7-.057-2.713-1.569-.013-1.66,1.551-1.332,2.586-1.385-.367-.09-.965-.218-1.279.005-3.368,2.392-5.759.868-7.881-1.87-.871-1.26-2.277-.888-3.49-1.1,1.039.274,2.254-.167,3.136.742,1.016,2.232-.658,2.585-2.134,2.906-2.34.507-4.285-.608-6.163-1.789-1.955-1.228-3.929-1.99-6.126-.594a6.238,6.238,0,0,1-1.005.278c-6.989-.049-13.724,1.516-20.431,3.254a4.146,4.146,0,0,1,.7.015c1.327.192,3.452-.264,3.47,1.5.022,2.233-2.257,1.567-3.6,1.489-1.866-.11-3.4.821-5.125,1.122-5.749-.014-11.489-.046-17.228.011-3.369.033-6.673.845-10.084.762C985.267,447.378,982.8,447.138,980.551,445.686Z" fill="#213658"/>
      <path id="Path_8567" data-name="Path 8567" d="M1188.565,384.933a153.028,153.028,0,0,1,16.357,13.773c3.07,1.567,1.634,4.9,2.76,7.241-.492-1.107-1.188-2.319-.044-3.275.97-.81,1.665.454,2.374.895,3.337,2.077,3.82,3.485,2.52,6.989-.256.689-.526,1.467-.141,2.024,2.337,3.391-.382,5.015-2.321,6.928-4.273,4.356-8.662,8.6-12.915,12.969a11.382,11.382,0,0,1-3.449,3.31c-1.7.682-2.742,2.147-3.961,3.377a5.021,5.021,0,0,1-5.379,1.581c-12.768-2.584-25.7-1.74-38.586-1.928a18.918,18.918,0,0,0-7.939,1.2,12.192,12.192,0,0,1-6.589.83c-.928-.137-2.04-.3-2.19-1.422-.172-1.277,1.077-1.482,1.91-1.632,3.687-.668,7.372-1.615,11.117-1.619,9.412-.011,18.825-.189,28.237-.007,1.036.021,2.153.3,2.887-.8,5.116-2.153,5.489-2.708,4.73-7.044-.848-4.846-1.036-5.027-5.8-5.05-5.408-.026-10.815,0-16.223-.01a16.44,16.44,0,0,1-2.816-.109c-1.037-.182-2.252-.328-2.222-1.747.027-1.259,1.021-1.818,2.118-2a53.625,53.625,0,0,1,7.392-.2,18.7,18.7,0,0,0,2.8-.143c.306-.157.622-.308.919-.477,1.793-2.12.866-4.558.69-6.851-.088-1.139-1.375-.946-2.263-1.057-3.166-.068-6.326.142-9.474-.112-1.408-.113-2.943-.31-3.166-2.125-.245-2,1.284-2.532,2.787-2.976a18.9,18.9,0,0,1,5.215-.528c6.31-.059,12.62.1,18.917-.1,3.084-2.178,3.659-7.967,1.076-10.339a2.3,2.3,0,0,0-1.919-.483c-6.461.2-12.925.314-19.388.229-1.446-.019-3.116.347-4.21-1.6,4.086-1.788,8.176.193,11.595-.372-2.958.14-6.429-.526-9.93-.43a3.04,3.04,0,0,1-1.005-.294,16.158,16.158,0,0,0-11.35.018c-.822,1.067-2.251,1.265-3.156,2.22-.612.339-1.225.718-1.868.056-2.613-4.667-2.622-4.725,2.376-5.44,7.133-1.021,14.273-.151,21.4.133,1.147.046,2.283.118,2.769.186a3.843,3.843,0,0,1-2.209-.294,1.105,1.105,0,0,1-.69-1.118c.052-.558.5-.747.925-.927a4.023,4.023,0,0,1,1.374-.284c6.371-.329,12.638-1.918,19.1-1.351C1183.965,384.945,1186.3,383.372,1188.565,384.933Z" fill="#213658"/>
      <path id="Path_8568" data-name="Path 8568" d="M893.628,374.3c-5.773-2.741-8.6-7.7-10.23-13.565.59-2.854,1.866-5.581-.122-8.582-.794-1.2.328-3.159.48-4.787.1-1.029.23-2.392,1.606-2.3a1.455,1.455,0,0,1,1.342,1.783c-1.911-3.384-2.66-7.846-4.05-12.108,1.9-8.444,5.358-15.9,13.128-20.61,3.449-1.251,6.752-2.792,10.615-2.775,4.536.02,7.788,2.1,8.721,6.456.458,2.138-1.247,2.318-2.625,2.25-4.017-.2-6.048,3.628-7.349,7.661-3.8,8.824-5.309,17.938-3.649,27.5a16.244,16.244,0,0,0,2.032,5.584c2.836,4.77,4.453,5,8.59,1.379,1.681.153,2.595-.712,3.084-2.238.537-1.673,1.462-2.946,3.456-2.934a1.359,1.359,0,0,1,1.01,1.52,30.035,30.035,0,0,1-1.328,4.128,7.136,7.136,0,0,0,.631-1.213c.71-1.575,1.891-3.073,3.6-2.591,1.574.444.261,2.254.539,3.418a1.664,1.664,0,0,0,.259.63,17.8,17.8,0,0,1-7.645,11.357c-5.783,2.935-11.739,3.823-17.962,1.51C896.392,375.256,895.182,374.292,893.628,374.3Z" fill="#ec575f"/>
      <path id="Path_8569" data-name="Path 8569" d="M1137.889,360.027c-1.484,2.609-2.481,4.41-3.522,6.184-2.426,4.135-5.7,7.012-10.838,6.392a13.642,13.642,0,0,1-11.1-10.114c-2.911-12.05,6.14-25.472,18.393-27.4a13.629,13.629,0,0,1,8.2,1.462c1.552.746,2.363.471,2.98-1.063a12.1,12.1,0,0,1,1.219-2.146c1.248-1.871,2.745-3.233,5.265-2.562,2.631.7,3.537,2.581,3.448,5.058-.353,9.878-.75,19.755-1.137,29.632-.082,2.117-.183,4.233-.29,6.348-.123,2.445-.925,4.484-3.661,4.867-2.669.374-4.469-.925-5.593-3.339C1139.437,369.459,1139.13,365.184,1137.889,360.027Z" fill="#eb575f"/>
      <path id="Path_8570" data-name="Path 8570" d="M976.414,347.919c4.348-10.774,16.615-15.875,25.566-10.632,1.643.516,2.051-.838,2.531-1.82a10.236,10.236,0,0,1,3.78-4.307l2.109-.112c3.573,1.968,3.622,5.367,3.1,8.648-1.284,8.03-.618,16.142-1.334,24.185a17.676,17.676,0,0,0-.078,6.86c.4,1.6-.6,2.916-.89,4.375-3.065,2.659-6.1,2.123-7.824-1.5a38.155,38.155,0,0,1-2.826-10.454c-.144-.886.119-1.912-.991-2.685-3.038,4.442-4.28,10.616-10.854,11.716-3.289.8-6.015-.72-8.769-2.126l.04.033a23.551,23.551,0,0,1-3.56-3.6l.023.027C973.089,360.326,974.115,354.123,976.414,347.919Z" fill="#ec575f"/>
      <path id="Path_8571" data-name="Path 8571" d="M946.653,359.957c1.742-1.239,2.428-3.128,3.393-4.789,3.134-5.391,6.4-10.721,8.248-16.742.846-2.757,2.414-4.681,5.524-4.42,3.349.28,4.564,2.759,4.74,5.651a157.5,157.5,0,0,1-.154,20.815c-.243,3.4-.6,6.8-1.144,10.159-.622,3.876-2.8,5.842-5.96,5.752-2.976-.085-5.408-2.436-6.065-5.894-.219-1.154-.394-2.318-.563-3.481-.148-1.024-.259-2.054-.414-3.3-1.949.2-2.564,1.785-3.5,2.818-3.293,3.644-7.341,5.236-12.078,4.032-4.615-1.173-7.338-4.6-8.55-9.065-2.129-7.842-.631-15.169,3.757-21.91,1.729-2.656,4.185-4.2,7.511-3.347a6.115,6.115,0,0,1,4.931,6.461c-.012,4.459-.229,8.918-.269,13.378C946.052,357.284,945.532,358.616,946.653,359.957Z" fill="#ec575f"/>
      <path id="Path_8572" data-name="Path 8572" d="M1285.211,365.841c-1.727-.757-2.843-2.216-4.07-3.546-.38-1.272-.378-2.177,1.358-1.407,14.36,8.281,30.01,11.253,46.38,11.241a11.891,11.891,0,0,0,2.456-.237c.9-.193,1.968-.362,2.1-1.539.109-.964-.729-1.378-1.4-1.864a166.332,166.332,0,0,0-20.44-12.563,185.794,185.794,0,0,0-71.383-20.706,172.762,172.762,0,0,0-21.517-.585c-7.656.3-11.609,4.36-11.882,12.008-.35,9.847,2.118,19.375,3.278,29.052.208,1.732,1.893,4.53-1.04,4.989-2.666.416-2.447-2.594-2.794-4.445-1.586-8.434-3.17-16.874-3.6-25.471-.082-1.644-.069-3.3-.007-4.942.356-9.468,5.034-14.291,14.514-15.463,6.964-.862,13.888-.186,20.79.289a187.992,187.992,0,0,1,54.629,11.887,173.011,173.011,0,0,1,44.541,24.851c2.679,2.079,2.7,3.3.208,5.563a10.8,10.8,0,0,1-6.773,2.675,78.118,78.118,0,0,1-28.185-3.351c-1.13-.939-2.562-.975-3.9-1.291-.757-.179-1.513-.13-1.367.909.106.752.891,1.582-.37,2a2.8,2.8,0,0,1-3.1-1.154C1291.283,369.867,1288,368.167,1285.211,365.841Z" fill="#e9575e"/>
      <path id="Path_8573" data-name="Path 8573" d="M1174.428,351.621c-2.263,4.78-4.353,9.529-4.555,15.03-.114,3.1-1.765,5.929-5.536,6.323-3.275.342-6.018-1.319-6.941-5.219a55.425,55.425,0,0,1,.825-30.251c.853-2.647,2.711-4.491,5.8-4.164,3.328.352,4.377,2.751,4.741,5.668.185,1.48.1,3.034,1.183,4.548,2.083-1.775,4.012-3.643,6.16-5.211,7.381-5.384,13.092-3.86,16.32,4.683,2.98,7.889,4.272,16.1,2.607,24.544-.572,2.9-2.022,5.264-5.316,5.085-3.249-.175-4.421-2.577-4.829-5.562-.96-7.034-.271-14.089-.421-21.132.2-1.249,2.518-1.665,1.629-3.076-.674-1.068-2.4-.74-3.631-.776C1177.491,341.964,1173.216,347.105,1174.428,351.621Z" fill="#eb575f"/>
      <path id="Path_8574" data-name="Path 8574" d="M1073.364,334.656a5.427,5.427,0,0,1,.568-3.551c1.356-3.809.726-8.045,2.525-11.755,1.77-1,1.594.608,1.825,1.451.3,1.093-.24,2.274.456,3.379-.411-4.2,3.724-8.51-.553-12.613a2.822,2.822,0,0,1,1.112-2.627c4.76-1.869,5.728-1.336,9.3,5.121a18.4,18.4,0,0,1,.236,5.38,10.077,10.077,0,0,0-.115,5.211,4.938,4.938,0,0,1,.012,1.591,10.994,10.994,0,0,0,.067,5.688,18.226,18.226,0,0,1,.093,2.2,16.852,16.852,0,0,0,.341,4.591c-.147,8.422.989,16.815.423,25.252a42.85,42.85,0,0,1-.916,7.653c-.806,2.583-2.7,3.573-5.268,3.665a5.5,5.5,0,0,1-5.662-3.195,18.024,18.024,0,0,1-1.97-4.417c-.764-1.9-1.276-3.9-2.064-5.8a2.88,2.88,0,0,0-1.76-3.139c-1.362-.461-1.615,1.023-2.148,1.864-1.661,2.616-2.626.221-3.826-.512-.988-2.1.887-3.467,1.337-5.264-.715-1.11-2.009.415-2.791-.52-.617-3.255,1.55-5.7,2.461-8.514a2.206,2.206,0,0,1,.653-.683c1.235-.048,1.3-.741.789-1.6-.238-.4-.828-.351-1.243-.532-1.136-.495-3.41-.161-2.88-2.062s2.633-1.414,4.252-1.191a3.966,3.966,0,0,1,.671.189c1.521.5,3.287,1.57,4.45-.171A4.158,4.158,0,0,0,1073.364,334.656Z" fill="#ec575f"/>
      <path id="Path_8575" data-name="Path 8575" d="M1064.854,374.2c-3.55,3.278-8.121,3.572-12.8.743a13.938,13.938,0,0,1-6.359-7.587c-3.217-8.477-2.339-16.6,2.115-24.414,3.737-6.386,10.049-9.045,16.46-6.934-.07,1.427,1.857,1.348,2.015,2.882-2.394.819-4.029,2.791-6.517,5.078,1.963-1.084,3.294-1.537,4.744-1.089,1.346.416,3.207.122,3.2,2.364l-.168.163a1.154,1.154,0,0,1-.636.275c-6.2.111-8.54,2.341-8.9,8.565a26.67,26.67,0,0,0,.1,4.934,2.744,2.744,0,0,0,2.813,2.613c2.187,1.4,3.66-1.1,5.6-1.026,3.1,3.3,3.151,3.366-.5,5.795a1.657,1.657,0,0,0-.526,2.639A3.617,3.617,0,0,1,1064.854,374.2Z" fill="#ec575f"/>
      <path id="Path_8576" data-name="Path 8576" d="M1285.211,365.841c2.536,0,3.346,3,5.482,3.333,2.812.439,3,4.409,6.04,4.31.7-1.338-1.945-1.786-.585-3.048.987-.917,1.969.072,2.955.2,1.283.171,2.56.336,3.273,1.638l-4.425-.8c-.184,1.283.712,1.841,1.172,2.6,2.591,4.289,1.236,7.178-3.8,7.989a15.722,15.722,0,0,1-5.972-.188c-1.817-.409-3.58-1.058-5.919-1.77.837,1.689,1.558,2.939,2.092,4.264,1.216,3.017,1.378,5.994-.978,8.588a7.387,7.387,0,0,1-8.685,1.992c-1.43-.533-2.82-1.178-4.212-1.806-.757-.342-1.6-.9-2.279-.164-2.639,2.88-5.873,2.291-9.226,1.386,0,2.205,1.278,3.555,1.926,5.135,1.31,3.192.349,4.889-3.178,5.183a9.723,9.723,0,0,1-8.165-3.381c-.47-.717-1.22-1.4-1.957-1.012-.938.489-.209,1.383,0,2.129,1.309,4.731,1.3,4.734-2.224,6.524-1.8.093-3.61.218-5.023-1.249-.292-.827-1.651-1.115-1.275-2.212.216-.633.884-.547,1.427-.215l-.032-.017c1.248,1.153,2.583,1.7,4.159.606.983-1.785.236-3.346-.511-4.993-2.919-6.432-7.281-11.992-10.8-18.058-.449-1.119-.305-1.864,1.092-1.31.833.331,1.26,1.237,1.822,1.929,4.624,4.6,8.691,9.779,13.977,13.706,1.126.837,2.266,1.663,3.459,2.395.771.473,1.765,1.317,2.547.676,1.077-.882.049-1.954-.418-2.8a51.616,51.616,0,0,0-8.393-11.607c-.435-.933-1.656-1.233-1.931-2.236-.323-1.176.188-1.425,1.19-.806a50.616,50.616,0,0,0,14.308,7.993c1.216.406,2.833.9,3.563-.362s-.968-1.9-1.7-2.666a8.6,8.6,0,0,1-1.893-2.886.969.969,0,0,1,.112-1.476.811.811,0,0,1,1.179.139,27.151,27.151,0,0,0,13.544,7.662c4.049.981,5.444-.7,4.491-4.758-.885-3.772-3.656-6.483-5.252-9.844-.967-1.2-2.388-1.633-3.723-2.214a10.852,10.852,0,0,1-4.084-2.654c-.162-.92-2.076-1.283-1.1-2.381.866-.976,1.747.322,2.6.69l1.427.757a24.7,24.7,0,0,0,4.084,2.087,98.545,98.545,0,0,0,14.176,5,16.991,16.991,0,0,0,2.746.544c1.309.086,2.715-.017,3.375-1.365.68-1.388-.582-2.158-1.386-2.91C1291.309,371.315,1288.247,368.592,1285.211,365.841Z" fill="#e8585f"/>
      <path id="Path_8577" data-name="Path 8577" d="M1018.8,337.445c.059-2.8.857-5.257,3.892-5.938,2.994-.671,4.841,1.008,6.028,3.647,1.2,2.656,2.373.7,3.423-.14,3.357-2.7,6.332-3.022,9.717-1a3.79,3.79,0,0,1-.915,7.151,13.942,13.942,0,0,0-9.942,13.59c.019,4.211.6,8.418.776,12.633a6.192,6.192,0,0,1-3.839,6.2c-2.57,1.188-5.011.931-7.02-1.291-.616-1.784-2.2-3.558.029-5.355a1.371,1.371,0,0,0,.265-1.332c-1.262-6.614,1.1-13.212.172-18.614.151,2.1-.181,5.4-.038,8.713.048,1.1-.062,2.331-1.5,2.3-1.053-.024-1.512-.992-1.6-2.019-.45-5.257-.606-10.538.788-15.651C1019.367,339.117,1018.411,338.415,1018.8,337.445Z" fill="#eb575f"/>
      <path id="Path_8578" data-name="Path 8578" d="M1107.145,359.1c0,3.4.014,6.805-.005,10.207-.014,2.625-.519,4.974-3.6,5.64a4.847,4.847,0,0,1-5.949-3.226c-3.238-8.572-4.351-17.274-.377-25.974,1.1-2.412,2.875-4.042,5.783-3.622,3.089.446,3.9,2.685,3.93,5.37.048,3.868.012,7.736.012,11.6Z" fill="#ea565e"/>
      <path id="Path_8579" data-name="Path 8579" d="M1188.565,384.933c-4.917.18-9.762,1.87-14.775.378-1.829-.545-3.264,1.482-5.471,1.389a34.517,34.517,0,0,0-7.558.462c.919,2,2.832.553,3.914,1.741-9.815,1-19.587-1.066-29.337.907-.2,1.474,2.793,2.126,1.633,4.216a13.115,13.115,0,0,1-1.415,7.773l-1.889,1.532c-1.428-1.59-.889-3.529-.917-5.326-.072-4.575-.032-4.57-4.729-4.693a12.969,12.969,0,0,1-1.683-.211c-.057-.009-.087-.187-.267-.607,3.136.124,4.447-3.116,7.319-4.127-1.514,0-3.028.007-4.541,0-.837-.006-1.929-.038-1.96-1.021-.031-1.014,1.055-1.066,1.9-1.082a4.067,4.067,0,0,0,2.365-.519c-9.838.837-19.672,2.027-29.531.509.334-1.914,1.833-.941,2.779-1.007,4.725-.332,9.488.456,14.2-.452a7.114,7.114,0,0,1,3.864-.006c6.932-.741,13.85-.094,20.766.28a56.732,56.732,0,0,0,6.913-.019c.457-.253-.237-.592.016-.2.085.134-.01.266-.26.229-2.193-.323-4.673,1.233-6.573-1a230.886,230.886,0,0,1,25.147-.724c4.79-.786,9.65.237,14.439-.56A6.756,6.756,0,0,1,1188.565,384.933Z" fill="#213657"/>
      <path id="Path_8580" data-name="Path 8580" d="M1040.9,438.586c1.789-2.126,3.6-1.7,5.832-.356,1.9,1.146,3.7,2.854,6.327,2.479,1.442-.205,2.49-.524,2.6-2.161.116,0,.287-.047.342.012,3.261,3.506,7.259,1.28,10.951,1.421a1.592,1.592,0,0,1,1.62,1.026c-1.687.948-3.81-.238-6.133,1.28,3.662.868,6.725.339,9.721.5,1.469.079,3.127-.4,4,1.385-2.745.824-5.559.122-8.326.386-1.238.118-2.566-.468-3.712.435-15.459.832-30.925,1.407-46.409,1.41-.6.243-1.2.454-1.647-.265,2.081-2.083,4.981-.633,7.632-1.717-1.738-1.643-3.67-.624-5.341-.939-.72-.136-1.458-.224-1.358-1.188a1.023,1.023,0,0,1,1.3-.869c3.452.643,6.361-2.169,9.823-1.492a1.621,1.621,0,0,0,2.036-.957c.28-.762.957-1.369,1.581-1.027,2.963,1.627,6.1-.217,9.157.637a2.821,2.821,0,0,0,2.837,1.39A3.282,3.282,0,0,1,1040.9,438.586Z" fill="#223657"/>
      <path id="Path_8581" data-name="Path 8581" d="M919.214,358.69a1.453,1.453,0,0,0-.706-1.413c-1.538-2.749.366-4.939,1.182-7.307-1.405.86-.615,3-2.289,3.845-2.175-1.713.014-4.034-.762-5.667.14,2.311-.8,4.87.885,7.376.845,1.256-2.851,5.437-4.915,5.941a22.586,22.586,0,0,0,2.362-10.9c-.024-1.954-.675-2.817-2.7-2.613a10.348,10.348,0,0,1-5.843-.976c-2.9-1.484-3.825-5-1.637-7.034,3.672-3.409,8.3-3.034,12.717-2.312,3.244.53,5.321,2.83,5.9,6.223-1.015,3.364.825,6.617.329,10.013C923.25,357.189,922.291,358.485,919.214,358.69Z" fill="#eb575f"/>
      <path id="Path_8582" data-name="Path 8582" d="M1118.6,384.792c-2.219,1.542-4.719.471-7.075.749-3.288.387-6.685-.7-9.9.71-14.88-.494-29.736.6-44.6.928-8.058.18-16.134.26-24.2.519-.917.03-1.905-.186-2.61.673-.962.942-2.194.71-3.333.687a111.133,111.133,0,0,0-17.457.9c-1.788.245-3.77.556-5.368-.875-7.011.315-14.041-.559-21.05.606-3.438.571-4.988,2.568-5.061,5.664-.318,13.463.682,26.9,1.016,40.35.066,2.659.185,5.317.279,7.976-1.153-1.516-1.048-3.317-1.1-5.062q-.611-20.462-1.176-40.926c-.184-6.719,1.958-9,8.588-9.2q64.591-1.906,129.182-3.793C1116.018,384.664,1117.308,384.759,1118.6,384.792Z" fill="#2a3d5b"/>
      <path id="Path_8583" data-name="Path 8583" d="M905.144,327.716c-1.249-1.668-1.211-1.615.4-2.781.534-.387,1.2-1.16,1.152-1.69-.43-4.293,3-3.427,5.223-3.769.889-.137,1.932.132,2.489-.654.768-1.083-.892-1.135-1.027-1.829-1.019-5.255-4.586-4.841-8.688-4.434-2.253.223-4.535-.876-5.933,1.959-.141.288-1.943-.243-2.975-.394,8.125-6.159,20.591-4.645,26.131,3.122a10.2,10.2,0,0,1,1.843,5.947,2.618,2.618,0,0,1-1.369,2.663,2.674,2.674,0,0,1-3.2-.7c-.171-.161-.318-.346-.487-.509-5.94-5.753-8.419-5.374-12.746,1.939C905.718,326.982,905.415,327.339,905.144,327.716Z" fill="#e9585e"/>
      <path id="Path_8584" data-name="Path 8584" d="M1064.131,444.993c3.912-1.751,8.041-.308,12.038-.82,15.072-.807,30.15-1.43,45.247-1.441,2.994-1.612,6.3-1.532,9.54-1.665,5.135-.21,10.277.064,15.416.028a12.667,12.667,0,0,0,3.8-.526c1.326-.268,2.68-.1,4.011-.279,6.22-.12,12.435.116,18.655-.6,4.06-.469,8.121.716,12.2.962,2.179.14,3.623-1.132,5.062-2.524,1.034-1,1.8-2.5,3.608-2.339-2.8,3.985-6.339,5.847-11.511,5.974-38.307.939-76.607,2.188-114.909,3.328C1066.236,445.12,1065.183,445.028,1064.131,444.993Z" fill="#243858"/>
      <path id="Path_8585" data-name="Path 8585" d="M1088.187,372.116c1.987-11.274.367-22.621.691-33.929-.851-1.309.226-2.932-.69-4.231q0-1.061,0-2.12a9.876,9.876,0,0,1,0-5.654v-1.413a7.817,7.817,0,0,1,0-4.947q0-3.18-.01-6.36a5.275,5.275,0,0,1-1.026-1.817c-2.085-4.354-3.433-4.8-7.447-2.424l-1.386,2.13c1.062,2.874-.218,5.314-1.442,7.765-1.907,3.769-.585,8.33-2.944,11.989a93.587,93.587,0,0,1,3.684-20.048c.864-2.957,2.7-5.188,5.984-4.993,3.323.2,4.747,2.676,5.243,5.733a23.238,23.238,0,0,1,.588,4.18c-.4,16.346,1.116,32.658.812,49-.046,2.446-.109,4.916-1.214,7.2Q1088.57,372.712,1088.187,372.116Z" fill="#e85b60"/>
      <path id="Path_8586" data-name="Path 8586" d="M1018.8,337.445c.928.2.476,1.679,1.507,1.688.81.008,1.492.049,1.253,1.081-.193.833-.86.539-1.427.42-1.023-.214-1.278.474-1.168,1.222.657,4.475-1.615,8.922-.089,13.413.279.822-.133,2.221,1.133,2.153,1.22-.066.932-1.347.927-2.276a50.792,50.792,0,0,1,.793-11.144c0,5.96-.024,11.922.02,17.882.009,1.247-.42,2.613.567,3.712,1.17,1.3.863,1.951-.811,2.355-1.32.318-1.817,1.68-.552,2.138,2.837,1.027-.353,1.506-.033,2.207a5.827,5.827,0,0,1-2.638-4.764,114.862,114.862,0,0,1,.04-29.168A3.184,3.184,0,0,1,1018.8,337.445Z" fill="#ea585f"/>
      <path id="Path_8587" data-name="Path 8587" d="M882.654,334.734c3.263,4.531,4.025,9.723,4.331,15.041-1.465-1.112.111-3.171-2.505-4.612,1.242,3.382-2.4,6.126,1.143,9.458,1.81,1.7-1.4,4.025-2.225,6.109A42.431,42.431,0,0,1,882.654,334.734Z" fill="#e9585e"/>
      <path id="Path_8588" data-name="Path 8588" d="M1067.71,345.24c-2.948-2.8-5.813-2.022-8.665.4a7.822,7.822,0,0,1,6.5-6.926c.1-1.153-4.671-.015-1.28-2.714a7.346,7.346,0,0,1,4.512,1.733c2.505,1.708,4.022,1.849,4.117-1.773a4.515,4.515,0,0,1,.469-1.309c.7-.065,1.858-1.427,1.671-.836-.708,2.242,1.328,4.532-.419,6.619-1.715,2.048-3.477,1.216-5.339.352-1.539-.713-3.077-.709-5.432.481a31.134,31.134,0,0,0,4.585,1c.826.045,1.9-.325,1.794.829a3.913,3.913,0,0,1-1.782,2.821C1068.376,345.966,1067.962,345.479,1067.71,345.24Z" fill="#e9575e"/>
      <path id="Path_8589" data-name="Path 8589" d="M1102.283,338.876a4.773,4.773,0,0,1-4.145-4.582,4.684,4.684,0,0,1,5.057-4.717c2.847.161,4.253,1.785,4.189,4.6A4.82,4.82,0,0,1,1102.283,338.876Z" fill="#e85b61"/>
      <path id="Path_8590" data-name="Path 8590" d="M1064.854,374.2c1.276-2.044.45-3.908-.718-5.557-.96-1.353-.647-2.538.663-2.67,5.173-.521,2.745-2.952,1.472-5.159a.442.442,0,0,1-.161-.471c.054-.157.107-.236.161-.236,1.316.39,2.343-.075,3.7-1.718a2.425,2.425,0,0,1,3.083-.589c.686.293,1.369,3.253,1.005,3.722a1.554,1.554,0,0,1-1.081-.683c-.576-.67-1.157-.761-1.747-.015-1.421,3.225-1.761,6.834-3.52,9.936C1066.965,372.069,1066.394,373.539,1064.854,374.2Z" fill="#e9585f"/>
      <path id="Path_8591" data-name="Path 8591" d="M957.822,333.822c-.243,2.662-1.654,4.311-4.452,4.273-2.761-.038-4.38-1.63-4.335-4.4.043-2.6,1.569-4.032,4.224-4.109C956.115,329.5,957.539,331,957.822,333.822Z" fill="#258365"/>
      <path id="Path_8592" data-name="Path 8592" d="M1241.674,405.272c-2.5.655.468,1.652-.152,2.426-6.831-4.854-11.224-11.539-14.384-19.149-.268-.646-.7-1.515,0-1.925,1.037-.606,1.417.462,1.721,1.164A53.653,53.653,0,0,0,1241.674,405.272Z" fill="#e3656b"/>
      <path id="Path_8593" data-name="Path 8593" d="M1174.428,351.621c-1.8-.974-2.815-2.1-.832-3.9a2.982,2.982,0,0,0,.757-1.141c.518-1.42.795-3.522,2.149-3.81,3.244-.688,6.4-2.422,9.892-1.469.937.255,1.15,1.1,1.354,1.869a1.378,1.378,0,0,1-.833,1.714c-.812.371-1.632.723-2.449,1.083-.469-.562-1-1.1-.863-1.931-2.9-.754-5.376.79-7.568,4.74a5.974,5.974,0,0,0-.208.664A3.737,3.737,0,0,1,1174.428,351.621Z" fill="#e9585e"/>
      <path id="Path_8594" data-name="Path 8594" d="M1209.788,419.457c1.816-2.014,4.057-3.9,1.6-6.947-.281-.347-.142-1.159,0-1.7,1.333-5.05,1.273-5.221-3.228-7.737-.117,1.9-.117,1.9,1.98,3.52-2.248.974-4.194-.085-3.7-2.52.477-2.33-.693-3.681-1.519-5.364,2.614,2.133,5.4,4.094,7.806,6.436,4.281,4.158,3.348,9.959-2.085,14.385A.552.552,0,0,1,1209.788,419.457Z" fill="#243956"/>
      <path id="Path_8595" data-name="Path 8595" d="M1011.2,375.116l.623-4.422a12.977,12.977,0,0,1,0-6.339c.048-8.6-.221-17.21,1.4-25.721.592-3.1-.975-5.394-2.825-7.585,3.356.4,3.63,2.888,3.537,5.455-.281,7.729-.663,15.454-.978,23.182-.148,3.631-.227,7.264-.352,10.895C1012.55,372.217,1012.6,373.9,1011.2,375.116Z" fill="#e95b61"/>
      <path id="Path_8596" data-name="Path 8596" d="M912.609,361.465c2.324-.808,2.24-3.73,4.256-4.865a1.089,1.089,0,0,0-.095-1.577c-2.076-1.115-1.05-2.884-.84-4.3.179-1.2.586-2.22-.451-3.2-.391-.37-1.027-.749-.689-1.435a.961.961,0,0,1,.846-.381c.673.2,1.37.572,1.391,1.387.051,1.975.016,3.952.016,6.3a5.631,5.631,0,0,0,1.495-3.815c.056-.775.354-1.357,1.234-1.4.615-.032,1.261.081,1.377.766.111.659.185,1.861-.073,1.965-3.126,1.264-2.053,4.128-2.568,6.371a5.361,5.361,0,0,0-2.8,3.671c-.567,2.039-1.743,2.718-3.59,1.231Z" fill="#e9585e"/>
      <path id="Path_8597" data-name="Path 8597" d="M919.214,358.69c2.548-.965,3.881-2.648,3.558-5.527-.3-2.633.389-5.326-.4-7.942-.282-.934.248-1.249,1.037-1.368.553,1.148-.267,2.583.758,3.634a46.681,46.681,0,0,1,.045,11.342c.3,1.477-.827,2.659-.84,4.07-1.18-.972-.184-2.492-.864-3.544-2.078.525-2.874,2.083-3.312,3.968-.152.653-.369,1.511-1.313,1.169a1.256,1.256,0,0,1-.608-1.776C917.852,361.345,918.56,360.029,919.214,358.69Z" fill="#e9585e"/>
      <path id="Path_8598" data-name="Path 8598" d="M1016.075,446.138l1.646.265c-11.057,1.034-22.164.806-33.246,1.233a4.451,4.451,0,0,1-3.924-1.95c5.093,1.888,10.241,1.18,15.5.759C1002.691,445.913,1009.4,446.2,1016.075,446.138Z" fill="#2a3d5b"/>
      <path id="Path_8599" data-name="Path 8599" d="M1143.323,384.083c2.162,1.665,4.762.144,7.038,1.2-9.308.811-18.593-.8-27.9-.494A151.969,151.969,0,0,1,1143.323,384.083Z" fill="#213658"/>
      <path id="Path_8600" data-name="Path 8600" d="M893.628,374.3c1.626-.949,2.7.143,4.129.774,4.66,2.057,9.53,1.854,14.318.219,1.2-.411,2.28-1.217,3.65-1.032A19.649,19.649,0,0,1,893.628,374.3Z" fill="#e95b60"/>
      <path id="Path_8601" data-name="Path 8601" d="M1047.807,342.939c-1.627,5.056-4.218,9.9-3.448,15.485.412,2.981.887,5.952,1.334,8.929C1041.682,360.16,1042.591,349.658,1047.807,342.939Z" fill="#e95f63"/>
      <path id="Path_8602" data-name="Path 8602" d="M976.414,347.919c.28,2.506-1.176,4.647-1.458,7.092-.468,4.041.579,7.732,1.478,11.513C972.24,360.327,973.385,354.124,976.414,347.919Z" fill="#e85d61"/>
      <path id="Path_8603" data-name="Path 8603" d="M1209.788,419.457l.855.07a157.223,157.223,0,0,1-13.488,12.95C1200.708,427.5,1205.342,423.569,1209.788,419.457Z" fill="#283a59"/>
      <path id="Path_8604" data-name="Path 8604" d="M1088.187,372.116l.842.057c-2.49,4.558-8.573,5.017-11.286.756a12.609,12.609,0,0,1-2.362-5.736.457.457,0,0,1,.788-.02c.521,1.281.956,2.607,1.58,3.837C1080.243,375.918,1084.582,376.361,1088.187,372.116Z" fill="#e66168"/>
      <path id="Path_8605" data-name="Path 8605" d="M1269.879,370l-2.427-.553c.368.888.649,1.565.929,2.243-1.4-1.056-2.8-2.1-4.188-3.173A1.069,1.069,0,0,1,1263.8,367a1.026,1.026,0,0,1,1.557-.16C1266.8,368,1268.864,368.251,1269.879,370Z" fill="#e66369"/>
      <path id="Path_8606" data-name="Path 8606" d="M1246.545,408.948c2.581-2.215,2.581-2.215,1.014-9.7,1.534.1,2.7.475,3.17,2.058l-1.677-.534C1250.4,407.944,1250.355,408.083,1246.545,408.948Z" fill="#e3656b"/>
      <path id="Path_8607" data-name="Path 8607" d="M1175.827,349.436c.352-4.3,4.369-7.092,7.776-5.4-2.457-1-3.655.845-5.012,2.252C1177.622,347.288,1176.745,348.382,1175.827,349.436Z" fill="#eb575f"/>
      <path id="Path_8608" data-name="Path 8608" d="M1182.909,382.8c-4.767,1.331-9.624.341-14.437.559C1173.257,382.5,1178.087,382.745,1182.909,382.8Z" fill="#213658"/>
      <path id="Path_8609" data-name="Path 8609" d="M1008.291,331.16c-1.254,1.793-2.923,3.262-3.849,5.335-.338.757-1.053,2.413-2.462.792,1.65-.33,1.85-1.895,2.589-3.011C1005.495,332.875,1006.14,331.109,1008.291,331.16Z" fill="#e95b61"/>
      <path id="Path_8610" data-name="Path 8610" d="M924.21,358.829l-.045-11.343A20.047,20.047,0,0,1,924.21,358.829Z" fill="#eb575f"/>
      <path id="Path_8611" data-name="Path 8611" d="M979.931,370.067c2.932.668,5.66,2.176,8.768,2.125C985.3,373.451,982.462,372.39,979.931,370.067Z" fill="#e85d61"/>
      <path id="Path_8612" data-name="Path 8612" d="M1076.169,367.173l-.788.02q-1.046-2.475-2.09-4.948a1.045,1.045,0,0,1,.059-1.434l.708.708Q1075.112,364.345,1076.169,367.173Z" fill="#e85b60"/>
      <path id="Path_8613" data-name="Path 8613" d="M1237.4,383.429c-1.159.675-1.328-3.309-2.914-.619-.63-.666-1.537-1.41-.58-2.3.776-.719,1.495.125,2.056.659C1236.617,381.794,1237.424,382.36,1237.4,383.429Z" fill="#e46c72"/>
      <path id="Path_8614" data-name="Path 8614" d="M1247.833,382.759c-1.709,1.49,1.28,1.835.741,3.041-.8-.66-1.638-1.274-2.37-2a.985.985,0,0,1,0-1.54C1246.884,381.737,1247.491,381.936,1247.833,382.759Z" fill="#e46c71"/>
      <path id="Path_8615" data-name="Path 8615" d="M976.411,366.5a8.27,8.27,0,0,1,3.56,3.6A5.323,5.323,0,0,1,976.411,366.5Z" fill="#e85d61"/>
      <path id="Path_8616" data-name="Path 8616" d="M1073.35,360.811q-.028.717-.058,1.434c-.725-.421-.94-1.577-2.062-1.424-.044-.706.025-1.573.777-1.659C1073.016,359.046,1072.8,360.321,1073.35,360.811Z" fill="#f2b8b9"/>
      <path id="Path_8617" data-name="Path 8617" d="M1275.39,372.846a4.583,4.583,0,0,1-4.084-2.087A6.289,6.289,0,0,1,1275.39,372.846Z" fill="#e66369"/>
      <path id="Path_8618" data-name="Path 8618" d="M1282.5,360.888c-.989-.049-1.265.59-1.358,1.406-.657-.471-1.519-1.082-.826-1.871S1281.959,359.821,1282.5,360.888Z" fill="#e68488"/>
      <path id="Path_8619" data-name="Path 8619" d="M1272.465,374.347c1.656.041,3.1.443,3.723,2.213A8.948,8.948,0,0,1,1272.465,374.347Z" fill="#e66369"/>
      <path id="Path_8620" data-name="Path 8620" d="M1245.8,405.861c-1.635,1.509-3.026,1.338-4.159-.6C1243.009,405.593,1244.312,406.363,1245.8,405.861Z" fill="#e3656b"/>
      <path id="Path_8621" data-name="Path 8621" d="M1263.405,383.5c-.939-.045-1.189.574-1.291,1.337-.579-.515-.892-1.154-.267-1.76S1263.078,382.647,1263.405,383.5Z" fill="#e58186"/>
      <path id="Path_8622" data-name="Path 8622" d="M1091.068,427.825c.112-9.858-.166-19.719.446-29.576.159-2.554.968-3.238,3.479-3.593,6.295-.891,10.91,1.334,14.359,6.457a33.527,33.527,0,0,1,4.927,5.7l-.015-.02c.882,1.439,2.477,2.088,3.732,3.454a18.772,18.772,0,0,0,.811-9.591,5.55,5.55,0,0,1,2.722-5.88c13.132-.489,10.241-.827,10.529,9.795.216,7.96.625,15.92.09,23.9-.4,6.008-.559,6.4-6.482,6.425-.939,0-1.878.042-2.816.065l.047.013c-6.118-1.552-8.6-7.254-12.676-11.137-1.673-1.6-3.077-3.473-4.829-5.479-1.069,3.987-.888,7.706-.834,11.383.046,3.11-.858,4.768-4.351,4.873-2.082.063-4.2.233-6.3.352-2.433-.383-3.279-1.763-2.686-4.14A4.1,4.1,0,0,0,1091.068,427.825Z" fill="#0989ae"/>
      <path id="Path_8623" data-name="Path 8623" d="M1046.624,410.322a8.2,8.2,0,0,0,.583-1.258c4.279-15.6,17.949-16.819,29.316-13.032.776.258,1.526.594,2.288.894,3.947,2.046,5.521,5.685,6.119,9.736a143.8,143.8,0,0,1,1.516,25.177c-.071,2.49-1.451,3.308-3.522,3.48-1.753.145-3.524.037-5.287.037-4.878,0-4.951.007-5.7-4.724-.281-1.777-1.3-2.126-2.711-1.894a32.275,32.275,0,0,1-4.917.26c-2.7.033-6-.871-5.479,3.887.118,1.074-1,1.76-2.061,2.158a7.343,7.343,0,0,1-2.428.317c-10.443.32-10.732.117-9.959-10.295C1044.748,420.11,1044.689,415.053,1046.624,410.322Z" fill="#66c1bb"/>
      <path id="Path_8624" data-name="Path 8624" d="M1150.405,441.374a9.242,9.242,0,0,1-2.335.664c-8.888.116-17.786-.2-26.654.694-.14-2.545.807-5.87-3.76-5.242l-.423-3.69c2.025.871,3.777,1.494,5.663,1.177l-.046-.013c1.934.873.925,1.508-.5,2.273a11.377,11.377,0,0,0,7.9-.031c-.726-1.126-1.741-.513-2.438-1.026.133-.168.216-.386.337-.408.8-.15,1.613-.207,2.4-.387,4.676-1.065,4.417-1.04,3.815-5.66a6.489,6.489,0,0,1,1.9-6.018c1.915.224,1.566,1.808,1.6,2.955.076,2.22.207,4.43.445,6.629-1.076,3.363,1.367,1.341,2.375,1.523,9.588-.177,19.166-.06,28.742-.065,1.269,0,2.6-.1,3.6.971.579.748,1.492,1.456-.52,1.443-10.2-.066-20.409-.03-30.613-.05-4.174-.008-8.042,1.933-12.25,1.848,2.959,1.863,5.93.818,8.716-.165a15.874,15.874,0,0,1,5.467-.967c8.932.027,17.874.257,26.793-.082,5.145-.2,9.508,2.5,14.415,2.9-10.381-.386-20.714,1.218-31.1.725C1152.761,440.957,1151.583,439.829,1150.405,441.374Z" fill="#213657"/>
      <path id="Path_8625" data-name="Path 8625" d="M1046.624,410.322a117.7,117.7,0,0,0-1.946,19.273c-.143,4.471.48,5.173,4.92,5.229,1.531.02,3.064-.069,4.592,0,2.968.13,4.876-.744,4.365-4.208-.191-1.3.37-1.951,1.752-2,3.293-.108,6.587-.244,9.874-.468,2.1-.144,2.375,1.124,2.211,2.679-.334,3.187,1.25,4.058,4.178,4.024,10.918-.127,9.248.866,9.415-9.09a135.12,135.12,0,0,0-1.456-18.627,15.888,15.888,0,0,0-5.717-10.209c2.786.6,4.2,2.575,5.294,5.027,2.411,5.4,1.555,11.286,2.646,16.879.9,4.625-.368,9.28.021,13.921.167,1.99-1.039,2.843-2.738,2.906-3.284.12-6.578.1-9.865.026-2.148-.047-3.231-1.214-2.945-3.422.312-2.4-.852-3.124-3.068-2.925-1.4.125-2.818.03-4.227.023-2.289-.012-4.749-.6-4.387,3.312.174,1.878-1.45,3.076-3.562,3.046-1.644-.022-3.289,0-4.934,0-6.62,0-6.621,0-7.406-6.5-.095-.786.062-1.857-1.157-1.739-1.151.112-.936,1.186-.939,1.958-.006,2.142.039,4.278-2.139,5.578a2.158,2.158,0,0,1-2.013,1.365c-3.877.1-7.755.019-11.634.045-6.817,0-13.632-.011-20.446.007-1.541,0-3.1.14-4.091-1.412l-.86-1.52a1.71,1.71,0,0,1,.974-.365c10.985,1.349,21.983-.373,32.977.147a5.811,5.811,0,0,0,5.124-8.807c-1.091-1.847-3.156-1.85-5.026-1.879-5.522-.085-11.044-.01-16.566-.039-5.111-.027-5.369-.475-5.62-5.708-.243-5.072.86-10.041.771-15.093-.1-5.819-1.247-6.966-7.045-6.744a9.213,9.213,0,0,0-4.045,1.031,5.671,5.671,0,0,0-.734.929c-.781,2.774-.319,5.6-.347,8.384-.075,7.375-.01,14.75-.038,22.126-.005,1.5.226,3.061-.645,4.45-.345.406-.782.487-1.116.084a1,1,0,0,1,.066-1.238c-.939-2.045-.552-4.234-.692-6.366a3.639,3.639,0,0,1,0-4.239q0-3.18,0-6.361a9.211,9.211,0,0,0,0-5.653c-.708-3.485.4-7.039-.576-10.571-.481-1.738,1.083-2.9,2.685-3.586.21-.259.27-.676.719-.684l1.414-.01a5.125,5.125,0,0,1,2.815-.922c1.4-.023,2.793-.037,4.191.021a3.1,3.1,0,0,1,2.183.913c2.164.9,3.049,2.386,2.883,4.855-.462,6.887.587,13.821-.624,20.7-.407,2.318,1.4,1.986,2.756,1.99,6.579.022,13.157,0,19.735.023a6.876,6.876,0,0,1,3.1.3c.975.535,3.89.162,1.956,2.893a1.041,1.041,0,0,0,.879,1.552c.974.073,1.032-.715,1.129-1.429.467-3.462.989-6.916,1.4-10.384C1045.2,412.452,1044.8,410.91,1046.624,410.322Z" fill="#273957"/>
      <path id="Path_8626" data-name="Path 8626" d="M1000.486,395.411c3.654-1.956,7.49-1.442,11.267-.64,2.009.426,2.155,2.257,2.1,3.982-.187,6.353-.211,12.718-.65,19.054-.227,3.264.932,3.986,3.961,3.9,6.238-.175,12.489-.078,18.73.1,4.456.13,4.744.565,4.726,5.024a32.442,32.442,0,0,1-.249,4.217,3.515,3.515,0,0,1-3.819,3.359q-15.192.189-30.384.4a19.789,19.789,0,0,1-5.81-1.3c-.038-.2-.077-.4-.115-.594a1.236,1.236,0,0,1-.314-.751c-.662-11.389-.16-22.782-.134-34.173,0-.9-.243-1.914.692-2.585,1.3,1.476,1.078,3.3,1.086,5.041.038,8.7-.059,17.4.047,26.107.064,5.206.839,5.947,5.957,5.966,8.706.032,17.413.075,26.118-.023,3.861-.043,4.647-1.088,4.65-4.941,0-2.339-.991-3.316-3.271-3.653-5.864-.866-11.743-.559-17.616-.433-5.1.109-5.988-.55-5.963-5.753.027-5.518-.309-11.04.472-16.555.511-3.6-.495-4.45-4.323-4.663C1005.235,396.365,1002.666,397.117,1000.486,395.411Z" fill="#d8545c"/>
      <path id="Path_8627" data-name="Path 8627" d="M1137.672,434.309c-1.28-3.427.086-7.2-1.408-10.6a15.518,15.518,0,0,0,0-7.067c-1.257-2.742.465-5.732-.708-8.481q0-3.18,0-6.36c-.4-2.749.506-5.262,1.415-7.773l1.414-.709c4.949-.7,9.658-3.09,14.847-2.118l12.518.8.02.5h-12.423l0,.757c4.808,0,9.643.315,14.412-.108,3.308-.293,6.655,1.088,10-.548.884-.433.877,1.979,1.89,2.935,2,1.889.6,8.663-1.83,10.44-.853-1.7-.188-3.469-.2-5.2-.029-4.7-.719-5.468-5.5-5.646-1.995-.074-3.993-.027-5.989-.027-7.4,0-14.8-.028-22.2.009-4.768.025-5.2.431-5.167,5.3.077,11.023-.384,22.055.5,33.067a3.621,3.621,0,0,1-.439,1.193C1138.2,435.341,1137.793,435.28,1137.672,434.309Z" fill="#243756"/>
      <path id="Path_8628" data-name="Path 8628" d="M1001.222,435.021c5.752,1.433,11.6.42,17.4.681,2.445.111,4.9.02,7.349.021a40.478,40.478,0,0,0,12.018,0l1.415-.7c.123.78,1.393,1.166.846,2.121-.443.774-1.2.277-1.876.273-11.147-.053-22.294-.037-33.464.451h17.754c-1.259,1.844-2.906,1.208-4.381,1.392-2.857.358-5.658-.4-8.626,1.2-2.416,1.3-5.681-.11-8.513-.675-.187-1.35,1.515-1.062,1.632-2.25-1.333-.8-2.165-.075-3.026.966-.88,1.066-2.355,1.266-2.995.217-.675-1.106.832-1.253,1.616-1.683A29.117,29.117,0,0,0,1001.222,435.021Z" fill="#223657"/>
      <path id="Path_8629" data-name="Path 8629" d="M1011.83,393.321l-2.127-.011a5.5,5.5,0,0,0-4.227,0h-2.835c.375-1.44.112-3.093,1.412-4.225,8.7-.819,17.431-.729,26.158-.713a2.85,2.85,0,0,1,2.387,1.367C1025.371,390.064,1017.951,388.331,1011.83,393.321Z" fill="#223657"/>
      <path id="Path_8630" data-name="Path 8630" d="M1121.529,394.778a7.372,7.372,0,0,0-2.2,5.658c-.077,3.791.291,7.624-.529,11.882-1.952-1.893-3.75-3.266-4.534-5.524,3.348,1.47,4.1.871,4.387-2.651.219-2.661-1.974-5.485.6-8.026C1119.949,395.429,1120.455,394.7,1121.529,394.778Z" fill="#1f3959"/>
      <path id="Path_8631" data-name="Path 8631" d="M1091.068,427.825c1.385,2.207-.569,5.738,2.835,7.144-.974.536,1.48,2.086-.359,1.937-1.409-.114-3.61.306-4-2.365C1089.183,432.016,1091.573,430.276,1091.068,427.825Z" fill="#203857"/>
      <path id="Path_8632" data-name="Path 8632" d="M1135.557,408.159c1.475,2.724.344,5.665.708,8.481-1.21.3-1.16,1.645-2.317,2.782C1132.671,415.125,1137.283,412,1135.557,408.159Z" fill="#213657"/>
      <path id="Path_8633" data-name="Path 8633" d="M999.933,432.164c.1.251.207.5.312.752-1.649.175-.983,4.078-3.218,2.491-2.163-1.536,1.612-1.95,1.386-3.48-.05-.342.439-.764.679-1.148A1.346,1.346,0,0,0,999.933,432.164Z" fill="#223657"/>
      <path id="Path_8634" data-name="Path 8634" d="M1056.077,438.34h-6.293l.07-.939C1051.837,437.14,1053.849,436.466,1056.077,438.34Z" fill="#223657"/>
      <path id="Path_8635" data-name="Path 8635" d="M1114.279,406.815a16.448,16.448,0,0,1-4.927-5.7C1112.277,401.906,1113.263,404.373,1114.279,406.815Z" fill="#1f3959"/>
      <path id="Path_8636" data-name="Path 8636" d="M1001.227,393.319l-.719.685c-.845-1.433-2.12.158-3.11-.4C999.666,390.684,999.823,390.674,1001.227,393.319Z" fill="#223657"/>
      <path id="Path_8637" data-name="Path 8637" d="M998.4,420.174q0,2.119,0,4.239C995.889,423,996.706,421.588,998.4,420.174Z" fill="#223657"/>
      <path id="Path_8638" data-name="Path 8638" d="M998.4,408.16a5.343,5.343,0,0,1,0,5.653Q998.4,410.987,998.4,408.16Z" fill="#223657"/>
      <path id="Path_8639" data-name="Path 8639" d="M1133.635,421.026c1.6,1.31.722,1.99.31,3.014C1133.153,422.993,1133.517,422.2,1133.635,421.026Z" fill="#213657"/>
      <path id="Path_8640" data-name="Path 8640" d="M1133.234,433.277c-.186-.368-.437-.633-.391-.83.057-.251.354-.448.548-.669.179.21.522.445.5.626C1133.85,432.665,1133.544,432.888,1133.234,433.277Z" fill="#213657"/>
      <path id="Path_8641" data-name="Path 8641" d="M1138.465,434.116c-1.274-12.093-.6-24.236-.949-36.353-.075-2.6,1.092-3.622,3.574-3.61q16.609.082,33.22.092c3.262,0,4.759,1.413,4.412,4.772-.241,2.329.071,4.722-.9,6.956q-11.052.141-22.105.29c-1.168.017-2.334.158-3.5.216-1.107.055-1.707.523-1.717,1.72-.011,1.323.83,1.543,1.836,1.542,3.74-.006,7.48-.042,11.219-.067,2.48,1.8,2.944,6.763.913,9.734l.052-.031c-2.857.959-5.8.2-8.692.421-.935.073-1.88.008-2.82.017-1.208.012-2.191.5-2.107,1.791.089,1.358,1.344,1.034,2.214,1.038,6.345.027,12.691,0,19.036.023,2.066.008,4.608-.56,5.557,1.9a12.5,12.5,0,0,1,.354,8.913c-.473,1.29-1.89,1.4-3.018,1.422-11.386.213-22.77.653-34.162.445A2.949,2.949,0,0,1,1138.465,434.116Z" fill="#fab79d"/>
      <path id="Path_8642" data-name="Path 8642" d="M1138.465,434.116a8.665,8.665,0,0,0,4.121.685c10.452-.121,20.9-.314,31.356-.277,3.258.011,4.288-1.238,4.215-4.377-.151-6.384-.669-7.032-7.037-7.034-6.108,0-12.216.008-18.324-.01-1.133,0-2.465.262-2.524-1.579-.064-2.012,1.309-1.829,2.629-1.856,3.872-.079,7.744-.191,11.616-.29-2.7,1.7-5.692.444-8.526.808-.926.119-1.882-.012-2.817.059-.825.064-1.8.23-1.624,1.345.149.92,1.107.676,1.754.678,6.464.023,12.929.009,19.394.018,5.292.006,6.364,1.278,6.666,7.863.176,3.832-1.415,5.231-6.336,5.571l-33.937,0c-.746.279-.86-.087-.724-.708Z" fill="#2e3b57"/>
      <path id="Path_8643" data-name="Path 8643" d="M1153.232,391.2c-4.889,1.127-9.718,2.674-14.847,2.118-.021-1.991,2.251-.924,2.828-2.118A21.556,21.556,0,0,1,1153.232,391.2Z" fill="#213657"/>
      <path id="Path_8644" data-name="Path 8644" d="M1178.309,389.521c-1.63.762-2.3,4.725-5.285,1.334-.965-1.1-4.305,1.011-7.3-.386C1170.237,388.95,1174.422,390.739,1178.309,389.521Z" fill="#243756"/>
      <path id="Path_8645" data-name="Path 8645" d="M1153.232,391.2h-12.019c-.5-.506-.633-1.234.168-1.259,3.626-.114,7.257-.093,10.885-.041C1152.907,389.909,1153.133,390.594,1153.232,391.2Z" fill="#243756"/>
      <path id="Path_8646" data-name="Path 8646" d="M1164.465,419.408c1.553-3.363,1.156-7.608-.912-9.734.346.02.781-.087,1.027.081C1166.688,411.194,1166.591,417.7,1164.465,419.408Z" fill="#2e3b57"/>
      <path id="Path_8647" data-name="Path 8647" d="M1129.234,359.518c-3.186,1.871-4.005,1.442-4.22-2.21-.378-6.421,4.77-11.988,12.04-12.472-2.673,5.03-5.218,9.821-7.763,14.612Z" fill="#fdf5f4"/>
      <path id="Path_8648" data-name="Path 8648" d="M1129.291,359.448c2.573,1.208,1.487-2.16,3.038-2.373.817.827,1.557,1.681.516,2.888-1.219,1.416-8.961,4.546-9.63,3.719-1.328-1.642-4.7-2.549-2.507-5.74,1.971.69,3.423,2.262,5.145,3.436,1.748,1.193,3.412.867,3.381-1.861Z" fill="#e9585e"/>
      <path id="Path_8649" data-name="Path 8649" d="M1131.006,363.214l3.347-.78a2.062,2.062,0,0,1-.979,2.736C1132.183,365.717,1131.809,364.138,1131.006,363.214Z" fill="#ea565b"/>
      <path id="Path_8650" data-name="Path 8650" d="M999.067,344.825c-2.7,4.907-5.22,9.609-7.869,14.241-.552.965-1.449,2.043-2.842,1.541-1.17-.422-1.191-1.608-1.3-2.666C986.379,351.192,991.684,345.14,999.067,344.825Z" fill="#fdf5f4"/>
      <path id="Path_8651" data-name="Path 8651" d="M998.174,360.224c-.21.571-.512,1.109-1.178.984a1.258,1.258,0,0,1-.963-1.525,1.239,1.239,0,0,1,.929-.751C997.757,358.9,998.134,359.457,998.174,360.224Z" fill="#ea565a"/>
      <path id="Path_8652" data-name="Path 8652" d="M1011.822,364.355q0,3.169,0,6.339A6.437,6.437,0,0,1,1011.822,364.355Z" fill="#e6565a"/>
      <path id="Path_8653" data-name="Path 8653" d="M952.6,358.23c1.326,1.693,1.23,3.084-.712,4.224a5.79,5.79,0,0,0-1.6,1.35c-.582.739.274,2.939-1.681,2.155-1.524-.612-2.924-1.963-2.053-4.109C949.786,363.077,950.07,362.907,952.6,358.23Z" fill="#eb565b"/>
      <path id="Path_8654" data-name="Path 8654" d="M965.171,373.2c-1.908.341-3.262.789-4.37-.439a.917.917,0,0,1,.2-.861C962.53,370.9,963.53,372.015,965.171,373.2Z" fill="#eb565a"/>
      <path id="Path_8655" data-name="Path 8655" d="M1061.315,362.216c-2.262,1.66-3.38.071-3.82-1.7-1.236-4.979-.692-9.8,2.458-14.02,2.076-2.779,4.822-2.361,7.59-1.089.079,3.327-2.492,5.828-2.82,9.029A13.348,13.348,0,0,1,1061.315,362.216Z" fill="#fef8f8"/>
      <path id="Path_8656" data-name="Path 8656" d="M1076.876,319.116c-.478-2.766,1.337-5.107,1.441-7.765,3.114,1.014,2.643,3.973,3.368,6.268.175.554.149,1.2-.84.842-1.683-.611-1.083.578-.845,1.222a6.35,6.35,0,0,1-.089,4.748c-.347.873-.5,1.969-1.8,1.536a1.638,1.638,0,0,1-1.016-2.27C1077.577,322.14,1078.146,320.586,1076.876,319.116Z" fill="#e9585e"/>
      <path id="Path_8657" data-name="Path 8657" d="M1061.315,362.216a29.985,29.985,0,0,1,3.409-7.784c.891-.019,1.478-.721,2.616-.7,1.38.03,1.584-.357,1.05,1.091-.656,1.78-2.183,3.211-2.119,5.278v.707C1064.828,362.018,1063.826,364.778,1061.315,362.216Z" fill="#e9585e"/>
      <path id="Path_8658" data-name="Path 8658" d="M1079.7,309.221a3.657,3.657,0,0,1,4.941-1.932c2.7,1,3.346,3.541,3.532,6.173-1.158,0-1.537-.906-1.915-1.733C1084.889,308.728,1082.547,308.34,1079.7,309.221Z" fill="#e9585e"/>
      <path id="Path_8659" data-name="Path 8659" d="M1088.187,326.182v5.654A5.288,5.288,0,0,1,1088.187,326.182Z" fill="#e9585e"/>
      <path id="Path_8660" data-name="Path 8660" d="M1088.187,319.822v4.947A4.085,4.085,0,0,1,1088.187,319.822Z" fill="#e9585e"/>
      <path id="Path_8661" data-name="Path 8661" d="M1088.188,333.956c1.274,1.24.485,2.817.69,4.232C1087.619,336.945,1088.416,335.367,1088.188,333.956Z" fill="#e9585e"/>
      <path id="Path_8662" data-name="Path 8662" d="M1295.34,379.185c-.139,1.89-1.43,2.278-2.955,2.088a12.831,12.831,0,0,1-5.24-1.34c-.129-.078-.092-.709.071-.938a1.307,1.307,0,0,1,1.576-.406c2.135.852,4.355.533,6.548.6Z" fill="#e9575e"/>
      <path id="Path_8663" data-name="Path 8663" d="M1295.34,379.185c.844-1.474,2.531-2.468,2.222-4.8,2.292,1.849,2.35,3.613.884,5.423-1.314,1.624-2.186.182-3.106-.624Z" fill="#e9575e"/>
      <path id="Path_8664" data-name="Path 8664" d="M1029.981,342.77c.288-3.742,3.536-4.515,5.651-6.331,1.157-.993,1.954.523,2.414,1.249.824,1.3-.763,1.8-1.324,1.708C1033.626,338.889,1031.709,340.522,1029.981,342.77Z" fill="#ea565b"/>
      <path id="Path_8665" data-name="Path 8665" d="M1105.329,370.681V358.135l.307-.005v12.546Z" fill="#ec565a"/>
      <path id="Path_8666" data-name="Path 8666" d="M1040.74,438.315c1.867,1.313,4.18.395,6.064,1.647C1044.169,441.679,1041.655,441.021,1040.74,438.315Z" fill="#213658"/>
      <path id="Path_8667" data-name="Path 8667" d="M1150.405,441.374c1.178-4.617,2.356-.2,3.534,0Z" fill="#213658"/>
      <path id="Path_8668" data-name="Path 8668" d="M953.969,335.152c-.133-1.261-2.252-2.036-.918-3.551.177-.2.8-.331.917-.208C955.073,332.544,954.579,333.84,953.969,335.152Z" fill="#bcded5"/>
      <path id="Path_8669" data-name="Path 8669" d="M1213.528,410c.832.21,1.134.661,1.125,1.278a1.981,1.981,0,0,1-1.036,1.983c-.524.183-1.008-.567-.89-1.154A12.641,12.641,0,0,1,1213.528,410Z" fill="#213658"/>
      <path id="Path_8670" data-name="Path 8670" d="M1065.658,417.868c-1.525-1.319-5.914,2.344-5.871-2.957.048-5.891,2.072-8.466,6.27-8.379,4.412.091,6.062,2.47,5.905,8.516C1071.886,417.971,1071.886,417.971,1065.658,417.868Z" fill="#213858"/>
      <path id="Path_8671" data-name="Path 8671" d="M1143.861,441.348c-.924-.345-3.261.753-3.3-.687-.054-2.174,2.24-1.388,3.621-1.218a4.09,4.09,0,0,0,2.358-.366c.99-.462,2.275-1.005,2.591.447.254,1.169-1.034,1.693-2.132,1.8C1146.071,441.423,1145.122,441.348,1143.861,441.348Z" fill="#213658"/>
      <path id="Path_8672" data-name="Path 8672" d="M1138.367,435.015l.724.708a1.33,1.33,0,0,1-2.426-.221c-.531-.924.343-1.061,1.007-1.193Z" fill="#213658"/>
      <path id="Path_8673" data-name="Path 8673" d="M1037.991,435.72a21.6,21.6,0,0,1-12.018,0Z" fill="#213658"/>
      <path id="Path_8674" data-name="Path 8674" d="M1005.476,393.309a3.211,3.211,0,0,1,4.227,0Z" fill="#213658"/>
      <path id="Path_8675" data-name="Path 8675" d="M1000.486,395.411q3.885.014,7.771.029c4.4.021,5.646,1.154,4.881,5.5-1.051,5.979-.289,11.964-.629,17.932-.173,3.029.659,3.9,4.055,3.631a97.271,97.271,0,0,1,21.1.525c.347.048.88.024,1,.227,1.5,2.5.633,5.235.609,7.856-.015,1.567-1.312,2.46-2.931,2.464-10.715.021-21.43.05-32.144-.015-1.949-.012-3.351-.945-3.356-3.239,0-1.4-.3-2.8-.3-4.2-.038-10.24-.036-20.479-.047-30.718Z" fill="#eb575f"/>
      <path id="Path_8676" data-name="Path 8676" d="M1013.578,389.836c-2.392,2.45-5.306,2.321-9.042,1.629C1007.718,389.482,1011.021,391.648,1013.578,389.836Z" fill="#213658"/>
    </g>
  </g>
</svg>
